<svg xmlns="http://www.w3.org/2000/svg" viewBox="0 0 500 500"><g id="freepik--background-simple--inject-70"><path d="M474.8,192.07s-17-64-75-106-149-47-213-28-122,94-144,153-40,157,2,207,82,56,146,51,120-34,171-54S502.8,314.07,474.8,192.07Z" style="fill:#C91574"></path><path d="M474.8,192.07s-17-64-75-106-149-47-213-28-122,94-144,153-40,157,2,207,82,56,146,51,120-34,171-54S502.8,314.07,474.8,192.07Z" style="fill:#fff;opacity:0.7000000000000001"></path></g><g id="freepik--Plants--inject-70"><path d="M420.4,362c-1.63,2.25-7.08,5.22-7.08,5.22s-.94-4.3-1-4.58c-.29-3.23,1-9.59,4.31-10.91a4.32,4.32,0,0,1,5.6,3C423,357.22,421.79,360.07,420.4,362Z" style="fill:#C91574"></path><path d="M427.79,379.16c-2.08,1.65-7.71,3-8.16,3.08a78,78,0,0,1,1.87,10c.25,2,.44,3.94.6,5.93.06-.92.12-1.73.14-1.85.56-3.16,3.49-8.89,7-9.28a4.39,4.39,0,0,1,4.66,4.4c.09,2.56-1.85,5-3.7,6.43s-6.65,2.71-7.91,3c.05.76.11,1.52.17,2.28.25,3.66.49,7.31.83,10.89.11,1.26.28,2.5.44,3.74.05-.82.1-1.5.12-1.6.56-3.17,3.49-8.9,7-9.28a4.39,4.39,0,0,1,4.66,4.4c.08,2.56-1.85,5-3.7,6.42s-6.18,2.59-7.69,3c.2,1.27.4,2.54.65,3.76.19.83.31,1.64.55,2.46s.43,1.63.64,2.43c.46,1.53.93,3.12,1.42,4.6.33,1,.67,2,1,3-.13-1.25-.34-3.71-.34-3.92.08-3.23,2.11-9.37,5.53-10.29a4.35,4.35,0,0,1,5.25,3.65c.46,2.52-1.09,5.21-2.69,6.95-1.76,1.91-6.88,4-7.52,4.29.55,1.63,1.11,3.22,1.67,4.71,1.2,3.28,2.36,6.19,3.37,8.63l-2,1.15c-1-2.55-2.15-5.61-3.35-9.1-.57-1.66-1.15-3.44-1.73-5.28a43.91,43.91,0,0,1-5.36.37c-.56,2.66-3.4,7-3.77,7.58,1.34,1.07,2.66,2.11,3.92,3.06,2.63,2,5,3.74,7.11,5.2l-2.18,1.25c-1.85-1.38-3.94-3-6.19-4.76-1.37-1.08-2.81-2.27-4.28-3.5-.51.45-4.65,4.15-7.15,4.9-2.26.68-5.34.9-7.4-.62a4.38,4.38,0,0,1-1-6.33c2.33-2.68,8.72-1.82,11.65-.47.18.07,2,1.14,3.08,1.84l-1.79-1.53c-1.22-1-2.4-2.11-3.68-3.26l-1.81-1.74c-.61-.58-1.19-1.26-1.8-1.88-1.38-1.49-2.71-3.06-4-4.68-.87,1.05-4,4.75-6.14,5.77s-5.13,1.72-7.39.53a4.41,4.41,0,0,1-1.9-6.14c1.89-3,8.31-3.14,11.4-2.26.19.06,2.34.94,3.51,1.45-.77-1-1.55-1.95-2.31-3-2.18-2.93-4.3-5.95-6.43-9l-2-2.75c-.31.38-3.94,4.85-6.33,6-2.12,1-5.13,1.71-7.38.52a4.39,4.39,0,0,1-1.9-6.13c1.89-3,8.31-3.15,11.39-2.27.23.07,3.33,1.34,4.1,1.71-1.45-2-2.91-4-4.43-5.92a77.63,77.63,0,0,0-6.56-7.34c-.15.17-3.92,4.86-6.36,6-2.13,1-5.13,1.72-7.39.52a4.4,4.4,0,0,1-1.9-6.13c1.89-3,8.31-3.15,11.4-2.27.24.07,3.57,1.45,4.15,1.74-.13-.13-.26-.29-.4-.42a56.15,56.15,0,0,0-7.75-6.07c-1.51-1-3-1.89-4.47-2.71-.61.95-3.46,5.25-5.54,6.56s-4.89,2.29-7.26,1.35a4.41,4.41,0,0,1-2.54-5.9c1.54-3.22,7.89-4.07,11-3.53.17,0,1.89.52,3.13.89-.66-.36-1.35-.75-2-1.08-2.42-1.26-4.72-2.26-6.76-3.13-1.16-.49-2.22-.91-3.22-1.28-1.08.59-5.5,2.95-7.92,3.12s-5.45-.3-7.15-2.23a4.31,4.31,0,0,1,.38-6.35c2.86-2.09,8.95.14,11.55,2.09.22.17,3.45,3.19,3.39,3.23l-.06,0c1,.35,2,.73,3.11,1.17,2.06.83,4.38,1.78,6.85,3a78.81,78.81,0,0,1,7.77,4.28,58.76,58.76,0,0,1,8,6l.09.09c-.55-.92-2-3.54-2.09-3.75-1.26-3-2-9.52.71-11.82a4.22,4.22,0,0,1,6.21,1.12c1.45,2.12,1.17,5.25.46,7.53-.81,2.58-4.7,6.86-5,7.19a78.62,78.62,0,0,1,7,7.45c1.27,1.52,2.5,3.1,3.71,4.7-.45-.81-.84-1.54-.89-1.65-1.26-3-2-9.51.71-11.82a4.23,4.23,0,0,1,6.21,1.12c1.45,2.13,1.17,5.25.45,7.54s-4,6-4.84,7l1.39,1.85c2.19,3,4.36,5.93,6.58,8.78.79,1,1.59,2,2.39,2.93l-.77-1.42c-1.25-3-2-9.52.71-11.83a4.22,4.22,0,0,1,6.21,1.12c1.46,2.13,1.17,5.26.46,7.54s-3.66,5.67-4.69,6.83c.85,1,1.7,1.93,2.57,2.82.6.6,1.15,1.22,1.79,1.79l1.84,1.7c1.21,1.05,2.46,2.13,3.66,3.12l2.45,2c-.79-1-2.29-3-2.4-3.14a17.23,17.23,0,0,1-2.18-8.16,5.7,5.7,0,0,1-.42-.86,4.2,4.2,0,0,1,2.61-5.73c3.43-.88,8.39,3.41,10.15,6.15.1.16,1,2,1.62,3.24-.24-.75-.47-1.48-.7-2.26-.47-1.53-.89-3.07-1.35-4.73-.2-.8-.39-1.62-.59-2.44s-.34-1.7-.51-2.55c-.37-2-.64-4-.88-6.08-1.31.38-6,1.64-8.35,1.28s-5.28-1.47-6.55-3.71a4.25,4.25,0,0,1,1.71-6.09c3.24-1.41,8.77,2.09,10.91,4.54.14.15,1.48,2.08,2.2,3.16-.13-1.24-.26-2.47-.35-3.72-.27-3.62-.43-7.28-.6-10.94-.05-1.12-.12-2.23-.18-3.35-.47.14-6,1.76-8.64,1.36-2.36-.35-5.28-1.47-6.55-3.71a4.25,4.25,0,0,1,1.71-6.09c3.24-1.41,8.77,2.09,10.91,4.54.16.19,2.1,3,2.56,3.69-.14-2.45-.3-4.91-.55-7.32a77,77,0,0,0-1.59-9.7c-.22.07-6,1.79-8.69,1.38-2.36-.35-5.29-1.47-6.55-3.71a4.24,4.24,0,0,1,1.71-6.09c3.24-1.41,8.77,2.09,10.91,4.54.17.19,2.25,3.18,2.59,3.75,0-.18-.07-.38-.11-.56a58.37,58.37,0,0,0-3.29-9.32c-.74-1.67-1.53-3.23-2.33-4.73-1,.43-5.79,2.36-8.27,2.26s-5.4-.87-6.9-3a4.29,4.29,0,0,1,1-6.26c3.06-1.76,8.92,1.11,11.3,3.31.14.12,1.33,1.49,2.18,2.49-.37-.67-.74-1.37-1.11-2-1.38-2.39-2.79-4.5-4.05-6.35-.72-1.05-1.4-2-2-2.86-1.25-.12-6.27-.67-8.43-1.89s-4.46-3.29-4.86-5.83a4.14,4.14,0,0,1,3.78-5c3.55-.11,7.52,5.15,8.67,8.19.1.27,1.2,4.55,1.13,4.55h-.07q.94,1.23,2,2.7c1.3,1.84,2.76,3.92,4.19,6.29a79.52,79.52,0,0,1,4.28,7.87,57.6,57.6,0,0,1,3.53,9.37l0,.12c0-1.06.22-4,.26-4.25.56-3.16,3.49-8.89,7-9.27a4.38,4.38,0,0,1,4.66,4.4C431.58,375.29,429.64,377.69,427.79,379.16Z" style="fill:#C91574"></path><path d="M366.7,394.47c0,.06-3.1-3.13-3.28-3.36-2-2.58-4.36-8.72-2.39-11.68a4.15,4.15,0,0,1,6.23-.58c1.95,1.68,2.49,4.8,2.4,7.21C369.55,388.89,366.7,394.46,366.7,394.47Z" style="fill:#C91574"></path><path d="M96,362c1.63,2.25,7.08,5.22,7.08,5.22s.94-4.3,1-4.58c.29-3.23-1-9.59-4.31-10.91a4.32,4.32,0,0,0-5.6,3C93.4,357.22,94.63,360.07,96,362Z" style="fill:#C91574"></path><path d="M88.63,379.16c2.09,1.65,7.71,3,8.16,3.08a78,78,0,0,0-1.87,10c-.25,2-.44,3.94-.6,5.93-.06-.92-.12-1.73-.13-1.85-.57-3.16-3.5-8.89-7-9.28a4.39,4.39,0,0,0-4.66,4.4c-.08,2.56,1.85,5,3.7,6.43s6.65,2.71,7.92,3l-.18,2.28c-.25,3.66-.48,7.31-.82,10.89-.12,1.26-.29,2.5-.44,3.74-.06-.82-.11-1.5-.12-1.6-.57-3.17-3.49-8.9-7-9.28a4.39,4.39,0,0,0-4.66,4.4c-.08,2.56,1.85,5,3.7,6.42s6.19,2.59,7.69,3c-.2,1.27-.4,2.54-.65,3.76-.19.83-.31,1.64-.55,2.46s-.43,1.63-.64,2.43c-.46,1.53-.93,3.12-1.42,4.6-.33,1-.66,2-1,3,.13-1.25.34-3.71.34-3.92-.08-3.23-2.11-9.37-5.53-10.29a4.35,4.35,0,0,0-5.25,3.65c-.46,2.52,1.09,5.21,2.69,6.95,1.76,1.91,6.88,4,7.53,4.29-.56,1.63-1.12,3.22-1.67,4.71-1.21,3.28-2.37,6.19-3.38,8.63l2,1.15c1-2.55,2.15-5.61,3.35-9.1.57-1.66,1.15-3.44,1.74-5.28a43.54,43.54,0,0,0,5.36.37c.56,2.66,3.4,7,3.77,7.58-1.35,1.07-2.67,2.11-3.93,3.06-2.63,2-5,3.74-7.1,5.2l2.17,1.25c1.85-1.38,3.94-3,6.19-4.76,1.37-1.08,2.81-2.27,4.28-3.5.51.45,4.66,4.15,7.15,4.9,2.26.68,5.34.9,7.41-.62a4.38,4.38,0,0,0,1-6.33c-2.33-2.68-8.72-1.82-11.65-.47-.17.07-2,1.14-3.08,1.84.6-.51,1.19-1,1.8-1.53,1.21-1,2.39-2.11,3.67-3.26l1.81-1.74c.61-.58,1.2-1.26,1.8-1.88,1.38-1.49,2.71-3.06,4-4.68.86,1.05,4,4.75,6.14,5.77s5.12,1.72,7.38.53a4.41,4.41,0,0,0,1.9-6.14c-1.89-3-8.31-3.14-11.4-2.26-.19.06-2.34.94-3.51,1.45.77-1,1.55-1.95,2.31-3,2.18-2.93,4.3-5.95,6.43-9l2-2.75c.31.38,3.94,4.85,6.33,6,2.13,1,5.13,1.71,7.38.52a4.4,4.4,0,0,0,1.91-6.13c-1.89-3-8.31-3.15-11.4-2.27-.23.07-3.32,1.34-4.1,1.71,1.45-2,2.91-4,4.43-5.92a79.13,79.13,0,0,1,6.57-7.34c.14.17,3.91,4.86,6.36,6,2.12,1,5.12,1.72,7.38.52a4.4,4.4,0,0,0,1.9-6.13c-1.89-3-8.31-3.15-11.39-2.27-.25.07-3.57,1.45-4.16,1.74.14-.13.26-.29.4-.42a57.37,57.37,0,0,1,7.75-6.07c1.51-1,3-1.89,4.47-2.71.61.95,3.46,5.25,5.54,6.56s4.89,2.29,7.26,1.35a4.41,4.41,0,0,0,2.54-5.9c-1.54-3.22-7.89-4.07-11-3.53-.17,0-1.89.52-3.13.89.67-.36,1.35-.75,2-1.08,2.42-1.26,4.72-2.26,6.76-3.13,1.16-.49,2.22-.91,3.22-1.28,1.09.59,5.5,2.95,7.92,3.12s5.45-.3,7.15-2.23a4.31,4.31,0,0,0-.38-6.35c-2.85-2.09-8.95.14-11.55,2.09-.22.17-3.45,3.19-3.39,3.23l.06,0c-1,.35-2,.73-3.11,1.17-2.06.83-4.38,1.78-6.85,3a80,80,0,0,0-7.77,4.28,58.76,58.76,0,0,0-8,6l-.09.09c.55-.92,2-3.54,2.09-3.75,1.26-3,2-9.52-.71-11.82a4.22,4.22,0,0,0-6.21,1.12c-1.45,2.12-1.17,5.25-.45,7.53.8,2.58,4.69,6.86,5,7.19a79.94,79.94,0,0,0-7,7.45c-1.27,1.52-2.5,3.1-3.71,4.7.45-.81.85-1.54.89-1.65,1.26-3,2-9.51-.71-11.82a4.23,4.23,0,0,0-6.21,1.12c-1.45,2.13-1.17,5.25-.45,7.54s4,6,4.84,7c-.46.62-.93,1.23-1.38,1.85-2.2,3-4.37,5.93-6.59,8.78-.78,1-1.59,2-2.39,2.93.4-.72.73-1.33.77-1.42,1.26-3,2-9.52-.71-11.83a4.23,4.23,0,0,0-6.21,1.12c-1.46,2.13-1.17,5.26-.46,7.54s3.66,5.67,4.69,6.83c-.85,1-1.7,1.93-2.57,2.82-.6.6-1.15,1.22-1.78,1.79l-1.85,1.7c-1.21,1.05-2.45,2.13-3.66,3.12-.83.69-1.64,1.34-2.45,2,.79-1,2.29-3,2.4-3.14a17.23,17.23,0,0,0,2.18-8.16,4.88,4.88,0,0,0,.42-.86,4.2,4.2,0,0,0-2.6-5.73c-3.43-.88-8.4,3.41-10.16,6.15-.1.16-1,2-1.61,3.24l.7-2.26c.46-1.53.88-3.07,1.34-4.73.2-.8.39-1.62.59-2.44s.34-1.7.52-2.55c.36-2,.64-4,.87-6.08,1.31.38,6,1.64,8.35,1.28s5.29-1.47,6.55-3.71a4.24,4.24,0,0,0-1.71-6.09c-3.24-1.41-8.77,2.09-10.91,4.54-.13.15-1.48,2.08-2.2,3.16.13-1.24.26-2.47.36-3.72.26-3.62.42-7.28.59-10.94l.18-3.35c.47.14,6,1.76,8.64,1.36,2.36-.35,5.29-1.47,6.55-3.71a4.24,4.24,0,0,0-1.71-6.09c-3.24-1.41-8.77,2.09-10.91,4.54-.16.19-2.1,3-2.56,3.69.14-2.45.3-4.91.55-7.32a78.82,78.82,0,0,1,1.59-9.7c.22.07,6,1.79,8.69,1.38,2.36-.35,5.29-1.47,6.55-3.71a4.24,4.24,0,0,0-1.71-6.09c-3.24-1.41-8.77,2.09-10.91,4.54-.17.19-2.25,3.18-2.59,3.75,0-.18.07-.38.12-.56a56.47,56.47,0,0,1,3.29-9.32c.73-1.67,1.52-3.23,2.32-4.73,1,.43,5.79,2.36,8.27,2.26s5.4-.87,6.9-3a4.28,4.28,0,0,0-1-6.26c-3.06-1.76-8.92,1.11-11.3,3.31-.13.12-1.33,1.49-2.18,2.49.37-.67.74-1.37,1.11-2,1.38-2.39,2.79-4.5,4-6.35.72-1.05,1.4-2,2-2.86,1.25-.12,6.28-.67,8.43-1.89s4.46-3.29,4.86-5.83a4.14,4.14,0,0,0-3.77-5c-3.56-.11-7.53,5.15-8.68,8.19-.1.27-1.2,4.55-1.13,4.55h.07q-.94,1.23-2,2.7c-1.3,1.84-2.75,3.92-4.19,6.29a79.52,79.52,0,0,0-4.28,7.87,57.6,57.6,0,0,0-3.53,9.37s0,.08,0,.12c0-1.06-.23-4-.27-4.25-.56-3.16-3.49-8.89-7-9.27a4.38,4.38,0,0,0-4.66,4.4C84.85,375.29,86.78,377.69,88.63,379.16Z" style="fill:#C91574"></path><path d="M149.73,394.47c0,.06,3.1-3.13,3.27-3.36,2-2.58,4.36-8.72,2.39-11.68a4.15,4.15,0,0,0-6.23-.58c-1.95,1.68-2.49,4.8-2.4,7.21C146.87,388.89,149.72,394.46,149.73,394.47Z" style="fill:#C91574"></path><path d="M420.4,113.55c-1.63,2.26-7.08,5.22-7.08,5.23s-.94-4.31-1-4.58c-.29-3.23,1-9.59,4.31-10.91a4.31,4.31,0,0,1,5.6,3C423,108.78,421.79,111.63,420.4,113.55Z" style="fill:#C91574"></path><path d="M427.79,130.72c-2.08,1.65-7.71,3-8.16,3.07a78.2,78.2,0,0,1,1.87,10c.25,2,.44,3.94.6,5.92.06-.91.12-1.73.14-1.84.56-3.17,3.49-8.9,7-9.28a4.39,4.39,0,0,1,4.66,4.4c.09,2.56-1.85,5-3.7,6.43s-6.65,2.71-7.91,3c.05.77.11,1.53.17,2.29.25,3.66.49,7.31.83,10.89.11,1.26.28,2.49.44,3.73.05-.81.1-1.49.12-1.59.56-3.17,3.49-8.9,7-9.28a4.38,4.38,0,0,1,4.66,4.4c.08,2.56-1.85,5-3.7,6.42s-6.18,2.59-7.69,3c.2,1.27.4,2.54.65,3.75.19.83.31,1.64.55,2.47s.43,1.63.64,2.43c.46,1.53.93,3.12,1.42,4.6.33,1,.67,2,1,3-.13-1.26-.34-3.71-.34-3.92.08-3.23,2.11-9.37,5.53-10.29a4.35,4.35,0,0,1,5.25,3.65c.46,2.52-1.09,5.2-2.69,6.94-1.76,1.92-6.88,4-7.52,4.3.55,1.63,1.11,3.22,1.67,4.7,1.2,3.29,2.36,6.2,3.37,8.64l-2,1.15c-1-2.55-2.15-5.61-3.35-9.11-.57-1.65-1.15-3.44-1.73-5.27a46.16,46.16,0,0,1-5.36.37c-.56,2.65-3.4,7-3.77,7.58,1.34,1.07,2.66,2.11,3.92,3.06,2.63,2,5,3.74,7.11,5.2l-2.18,1.25c-1.85-1.38-3.94-3-6.19-4.76-1.37-1.09-2.81-2.27-4.28-3.51-.51.46-4.65,4.16-7.15,4.91-2.26.68-5.34.9-7.4-.63a4.37,4.37,0,0,1-1-6.32c2.33-2.68,8.72-1.82,11.65-.48.18.08,2,1.15,3.08,1.85l-1.79-1.53c-1.22-1-2.4-2.11-3.68-3.26l-1.81-1.75c-.61-.57-1.19-1.25-1.8-1.88-1.38-1.48-2.71-3.06-4-4.67-.87,1.05-4,4.74-6.14,5.77s-5.13,1.72-7.39.52a4.39,4.39,0,0,1-1.9-6.13c1.89-3,8.31-3.14,11.4-2.26.19.05,2.34.94,3.51,1.44-.77-1-1.55-1.94-2.31-3-2.18-2.92-4.3-5.94-6.43-9l-2-2.75c-.31.38-3.94,4.85-6.33,6-2.12,1-5.13,1.72-7.38.53a4.4,4.4,0,0,1-1.9-6.14c1.89-3,8.31-3.14,11.39-2.26.23.07,3.33,1.34,4.1,1.7-1.45-2-2.91-4-4.43-5.91a77.77,77.77,0,0,0-6.56-7.35c-.15.18-3.92,4.87-6.36,6.05-2.13,1-5.13,1.71-7.39.52a4.4,4.4,0,0,1-1.9-6.13c1.89-3,8.31-3.15,11.4-2.27.24.07,3.57,1.44,4.15,1.74-.13-.14-.26-.29-.4-.42a56.15,56.15,0,0,0-7.75-6.07c-1.51-1-3-1.89-4.47-2.71-.61.95-3.46,5.25-5.54,6.56s-4.89,2.29-7.26,1.35a4.42,4.42,0,0,1-2.54-5.91c1.54-3.21,7.89-4.06,11-3.53.17,0,1.89.52,3.13.9-.66-.36-1.35-.75-2-1.08-2.42-1.26-4.72-2.26-6.76-3.14-1.16-.48-2.22-.9-3.22-1.28-1.08.6-5.5,3-7.92,3.13s-5.45-.3-7.15-2.23a4.31,4.31,0,0,1,.38-6.35c2.86-2.09,8.95.14,11.55,2.09.22.16,3.45,3.19,3.39,3.22l-.06,0c1,.35,2,.73,3.11,1.17,2.06.83,4.38,1.78,6.85,3a76.79,76.79,0,0,1,7.77,4.28,57.94,57.94,0,0,1,8,6l.09.09c-.55-.92-2-3.54-2.09-3.75-1.26-3-2-9.52.71-11.83a4.22,4.22,0,0,1,6.21,1.13c1.45,2.12,1.17,5.25.46,7.53-.81,2.58-4.7,6.85-5,7.19a78.62,78.62,0,0,1,7,7.45c1.27,1.52,2.5,3.1,3.71,4.69-.45-.81-.84-1.53-.89-1.64-1.26-3-2-9.52.71-11.82a4.23,4.23,0,0,1,6.21,1.12c1.45,2.13,1.17,5.25.45,7.53s-4,6-4.84,7c.46.62.93,1.23,1.39,1.84,2.19,3,4.36,5.94,6.58,8.79.79,1,1.59,2,2.39,2.93l-.77-1.43c-1.25-3-2-9.51.71-11.82a4.22,4.22,0,0,1,6.21,1.12c1.46,2.13,1.17,5.26.46,7.54s-3.66,5.67-4.69,6.83c.85,1,1.7,1.93,2.57,2.82.6.6,1.15,1.22,1.79,1.78l1.84,1.71c1.21,1.05,2.46,2.13,3.66,3.12l2.45,2c-.79-1-2.29-3-2.4-3.14a17.26,17.26,0,0,1-2.18-8.16,5.7,5.7,0,0,1-.42-.86,4.2,4.2,0,0,1,2.61-5.73c3.43-.88,8.39,3.41,10.15,6.15.1.16,1,2,1.62,3.24-.24-.76-.47-1.48-.7-2.26-.47-1.53-.89-3.07-1.35-4.73-.2-.81-.39-1.62-.59-2.44s-.34-1.7-.51-2.55c-.37-2-.64-4-.88-6.08-1.31.37-6,1.63-8.35,1.28s-5.28-1.47-6.55-3.72a4.24,4.24,0,0,1,1.71-6.08c3.24-1.41,8.77,2.09,10.91,4.54.14.15,1.48,2.08,2.2,3.15-.13-1.23-.26-2.46-.35-3.72-.27-3.61-.43-7.28-.6-10.93-.05-1.12-.12-2.24-.18-3.35-.47.13-6,1.76-8.64,1.36-2.36-.36-5.28-1.47-6.55-3.71a4.24,4.24,0,0,1,1.71-6.09c3.24-1.41,8.77,2.09,10.91,4.54.16.18,2.1,3,2.56,3.69-.14-2.46-.3-4.91-.55-7.32a77,77,0,0,0-1.59-9.7c-.22.07-6,1.79-8.69,1.38-2.36-.36-5.29-1.47-6.55-3.72a4.23,4.23,0,0,1,1.71-6.08c3.24-1.41,8.77,2.09,10.91,4.54.17.19,2.25,3.18,2.59,3.75,0-.19-.07-.38-.11-.57a58.6,58.6,0,0,0-3.29-9.31c-.74-1.67-1.53-3.23-2.33-4.73-1,.43-5.79,2.36-8.27,2.26s-5.4-.87-6.9-3a4.29,4.29,0,0,1,1-6.26c3.06-1.76,8.92,1.11,11.3,3.31.14.12,1.33,1.48,2.18,2.49-.37-.67-.74-1.37-1.11-2-1.38-2.39-2.79-4.5-4.05-6.35-.72-1.06-1.4-2-2-2.86-1.25-.12-6.27-.67-8.43-1.89s-4.46-3.3-4.86-5.83a4.14,4.14,0,0,1,3.78-5c3.55-.11,7.52,5.14,8.67,8.19.1.26,1.2,4.55,1.13,4.55h-.07c.63.82,1.3,1.71,2,2.7,1.3,1.84,2.76,3.92,4.19,6.29a79.52,79.52,0,0,1,4.28,7.87,57.6,57.6,0,0,1,3.53,9.37l0,.11c0-1.06.22-4,.26-4.24.56-3.16,3.49-8.89,7-9.28a4.39,4.39,0,0,1,4.66,4.4C431.58,126.85,429.64,129.25,427.79,130.72Z" style="fill:#C91574"></path><path d="M366.7,146c0,.05-3.1-3.14-3.28-3.36-2-2.58-4.36-8.72-2.39-11.68a4.14,4.14,0,0,1,6.23-.58c1.95,1.68,2.49,4.79,2.4,7.2C369.55,140.44,366.7,146,366.7,146Z" style="fill:#C91574"></path><path d="M96,113.55c1.63,2.26,7.08,5.22,7.08,5.23s.94-4.31,1-4.58c.29-3.23-1-9.59-4.31-10.91a4.31,4.31,0,0,0-5.6,3C93.4,108.78,94.63,111.63,96,113.55Z" style="fill:#C91574"></path><path d="M88.63,130.72c2.09,1.65,7.71,3,8.16,3.07a78.2,78.2,0,0,0-1.87,10c-.25,2-.44,3.94-.6,5.92-.06-.91-.12-1.73-.13-1.84-.57-3.17-3.5-8.9-7-9.28A4.39,4.39,0,0,0,82.5,143c-.08,2.56,1.85,5,3.7,6.43s6.65,2.71,7.92,3l-.18,2.29c-.25,3.66-.48,7.31-.82,10.89-.12,1.26-.29,2.49-.44,3.73-.06-.81-.11-1.49-.12-1.59-.57-3.17-3.49-8.9-7-9.28a4.38,4.38,0,0,0-4.66,4.4c-.08,2.56,1.85,5,3.7,6.42s6.19,2.59,7.69,3c-.2,1.27-.4,2.54-.65,3.75-.19.83-.31,1.64-.55,2.47s-.43,1.63-.64,2.43c-.46,1.53-.93,3.12-1.42,4.6-.33,1-.66,2-1,3,.13-1.26.34-3.71.34-3.92-.08-3.23-2.11-9.37-5.53-10.29A4.35,4.35,0,0,0,77.56,178c-.46,2.52,1.09,5.2,2.69,6.94,1.76,1.92,6.88,4,7.53,4.3-.56,1.63-1.12,3.22-1.67,4.7-1.21,3.29-2.37,6.2-3.38,8.64l2,1.15c1-2.55,2.15-5.61,3.35-9.11.57-1.65,1.15-3.44,1.74-5.27a45.76,45.76,0,0,0,5.36.37c.56,2.65,3.4,7,3.77,7.58-1.35,1.07-2.67,2.11-3.93,3.06-2.63,2-5,3.74-7.1,5.2l2.17,1.25c1.85-1.38,3.94-3,6.19-4.76,1.37-1.09,2.81-2.27,4.28-3.51.51.46,4.66,4.16,7.15,4.91,2.26.68,5.34.9,7.41-.63a4.37,4.37,0,0,0,1-6.32c-2.33-2.68-8.72-1.82-11.65-.48-.17.08-2,1.15-3.08,1.85.6-.51,1.19-1,1.8-1.53,1.21-1,2.39-2.11,3.67-3.26l1.81-1.75c.61-.57,1.2-1.25,1.8-1.88,1.38-1.48,2.71-3.06,4-4.67.86,1.05,4,4.74,6.14,5.77s5.12,1.72,7.38.52a4.39,4.39,0,0,0,1.9-6.13c-1.89-3-8.31-3.14-11.4-2.26-.19.05-2.34.94-3.51,1.44.77-1,1.55-1.94,2.31-3,2.18-2.92,4.3-5.94,6.43-9l2-2.75c.31.38,3.94,4.85,6.33,6,2.13,1,5.13,1.72,7.38.53a4.41,4.41,0,0,0,1.91-6.14c-1.89-3-8.31-3.14-11.4-2.26-.23.07-3.32,1.34-4.1,1.7,1.45-2,2.91-4,4.43-5.91A79.27,79.27,0,0,1,136.8,156c.14.18,3.91,4.87,6.36,6.05,2.12,1,5.12,1.71,7.38.52a4.4,4.4,0,0,0,1.9-6.13c-1.89-3-8.31-3.15-11.39-2.27-.25.07-3.57,1.44-4.16,1.74.14-.14.26-.29.4-.42A57.37,57.37,0,0,1,145,149.4c1.51-1,3-1.89,4.47-2.71.61.95,3.46,5.25,5.54,6.56s4.89,2.29,7.26,1.35a4.42,4.42,0,0,0,2.54-5.91c-1.54-3.21-7.89-4.06-11-3.53-.17,0-1.89.52-3.13.9.67-.36,1.35-.75,2-1.08,2.42-1.26,4.72-2.26,6.76-3.14,1.16-.48,2.22-.9,3.22-1.28,1.09.6,5.5,3,7.92,3.13s5.45-.3,7.15-2.23a4.31,4.31,0,0,0-.38-6.35c-2.85-2.09-8.95.14-11.55,2.09-.22.16-3.45,3.19-3.39,3.22l.06,0c-1,.35-2,.73-3.11,1.17-2.06.83-4.38,1.78-6.85,3a77.88,77.88,0,0,0-7.77,4.28,57.94,57.94,0,0,0-8,6l-.09.09c.55-.92,2-3.54,2.09-3.75,1.26-3,2-9.52-.71-11.83a4.22,4.22,0,0,0-6.21,1.13c-1.45,2.12-1.17,5.25-.45,7.53.8,2.58,4.69,6.85,5,7.19a79.94,79.94,0,0,0-7,7.45c-1.27,1.52-2.5,3.1-3.71,4.69.45-.81.85-1.53.89-1.64,1.26-3,2-9.52-.71-11.82a4.23,4.23,0,0,0-6.21,1.12c-1.45,2.13-1.17,5.25-.45,7.53s4,6,4.84,7l-1.38,1.84c-2.2,3-4.37,5.94-6.59,8.79-.78,1-1.59,2-2.39,2.93.4-.72.73-1.33.77-1.43,1.26-3,2-9.51-.71-11.82a4.23,4.23,0,0,0-6.21,1.12c-1.46,2.13-1.17,5.26-.46,7.54s3.66,5.67,4.69,6.83c-.85,1-1.7,1.93-2.57,2.82-.6.6-1.15,1.22-1.78,1.78l-1.85,1.71c-1.21,1.05-2.45,2.13-3.66,3.12-.83.69-1.64,1.34-2.45,2,.79-1,2.29-3,2.4-3.14a17.26,17.26,0,0,0,2.18-8.16,4.88,4.88,0,0,0,.42-.86,4.19,4.19,0,0,0-2.6-5.73c-3.43-.88-8.4,3.41-10.16,6.15-.1.16-1,2-1.61,3.24.23-.76.46-1.48.7-2.26.46-1.53.88-3.07,1.34-4.73.2-.81.39-1.62.59-2.44s.34-1.7.52-2.55c.36-2,.64-4,.87-6.08,1.31.37,6,1.63,8.35,1.28s5.29-1.47,6.55-3.72a4.23,4.23,0,0,0-1.71-6.08c-3.24-1.41-8.77,2.09-10.91,4.54-.13.15-1.48,2.08-2.2,3.15.13-1.23.26-2.46.36-3.72.26-3.61.42-7.28.59-10.93l.18-3.35c.47.13,6,1.76,8.64,1.36,2.36-.36,5.29-1.47,6.55-3.71a4.24,4.24,0,0,0-1.71-6.09c-3.24-1.41-8.77,2.09-10.91,4.54-.16.18-2.1,3-2.56,3.69.14-2.46.3-4.91.55-7.32a78.82,78.82,0,0,1,1.59-9.7c.22.07,6,1.79,8.69,1.38,2.36-.36,5.29-1.47,6.55-3.72a4.23,4.23,0,0,0-1.71-6.08c-3.24-1.41-8.77,2.09-10.91,4.54-.17.19-2.25,3.18-2.59,3.75,0-.19.07-.38.12-.57a56.68,56.68,0,0,1,3.29-9.31c.73-1.67,1.52-3.23,2.32-4.73,1,.43,5.79,2.36,8.27,2.26s5.4-.87,6.9-3a4.28,4.28,0,0,0-1-6.26c-3.06-1.76-8.92,1.11-11.3,3.31-.13.12-1.33,1.48-2.18,2.49.37-.67.74-1.37,1.11-2,1.38-2.39,2.79-4.5,4-6.35.72-1.06,1.4-2,2-2.86,1.25-.12,6.28-.67,8.43-1.89s4.46-3.3,4.86-5.83a4.14,4.14,0,0,0-3.77-5c-3.56-.11-7.53,5.14-8.68,8.19-.1.26-1.2,4.55-1.13,4.55h.07c-.63.82-1.3,1.71-2,2.7-1.3,1.84-2.75,3.92-4.19,6.29a79.52,79.52,0,0,0-4.28,7.87,57.6,57.6,0,0,0-3.53,9.37s0,.08,0,.11c0-1.06-.23-4-.27-4.24-.56-3.16-3.49-8.89-7-9.28a4.39,4.39,0,0,0-4.66,4.4C84.85,126.85,86.78,129.25,88.63,130.72Z" style="fill:#C91574"></path><path d="M149.73,146c0,.05,3.1-3.14,3.27-3.36,2-2.58,4.36-8.72,2.39-11.68a4.14,4.14,0,0,0-6.23-.58c-1.95,1.68-2.49,4.79-2.4,7.2C146.87,140.44,149.72,146,149.73,146Z" style="fill:#C91574"></path></g><g id="freepik--Character--inject-70"><path d="M360.55,318.61c-.44-6.52-10.44-20.88-10.44-20.88s-13.05-59.6-13.49-62.65-30-10-31.76-10.44-23.95-6.54-23.95-6.54l-27.6,1.55-27.6-1.55s-22.21,6.11-24,6.54S170.43,232,170,235.08s-13.49,62.65-13.49,62.65-10,14.36-10.44,20.88-.43,8.7-.43,8.7l10.44,23.5s2.17.87,10.87-.87,13.92-10,13.92-10,6.53-11.75,6.53-16.53-.44-10-.44-12.62,2.62-17,2.62-17l6.09,35.68v19.14H311V329.49L317,293.81s2.61,14.36,2.61,17-.43,7.83-.43,12.62,3.26,23.27,3.26,23.27,2.18-.43,10.88,1.31a16.66,16.66,0,0,1,11.75,8.48L361,327.31S361,325.14,360.55,318.61Z" style="fill:#263238;stroke:#263238;stroke-miterlimit:10"></path><line x1="183.39" y1="253.64" x2="182.9" y2="250.48" style="fill:none;stroke:#5e5e5e;stroke-miterlimit:10"></line><line x1="189.58" y1="293.81" x2="183.99" y2="257.54" style="fill:none;stroke:#5e5e5e;stroke-miterlimit:10"></line><line x1="179.34" y1="257.01" x2="178.03" y2="252.92" style="fill:none;stroke:#5e5e5e;stroke-miterlimit:10"></line><line x1="188.12" y1="284.57" x2="181.04" y2="262.35" style="fill:none;stroke:#5e5e5e;stroke-miterlimit:10"></line><path d="M163.08,297.79a24.49,24.49,0,0,1,19.82,12.52" style="fill:none;stroke:#5e5e5e;stroke-miterlimit:10"></path><path d="M164.47,292.92a35.09,35.09,0,0,1,16.69,11.47" style="fill:none;stroke:#5e5e5e;stroke-miterlimit:10"></path><line x1="320.54" y1="283.66" x2="330.73" y2="246.31" style="fill:none;stroke:#5e5e5e;stroke-miterlimit:10"></line><line x1="318.21" y1="292.22" x2="319.45" y2="287.66" style="fill:none;stroke:#5e5e5e;stroke-miterlimit:10"></line><path d="M325.51,316.92s8.35-14.27,19.83-16" style="fill:none;stroke:#5e5e5e;stroke-miterlimit:10"></path><path d="M329.75,316.3a23.57,23.57,0,0,0-1.46,2.7" style="fill:none;stroke:#5e5e5e;stroke-miterlimit:10"></path><path d="M339.08,306.13a48.07,48.07,0,0,0-7.34,7.36" style="fill:none;stroke:#5e5e5e;stroke-miterlimit:10"></path><line x1="322.38" y1="279" x2="331.08" y2="258.13" style="fill:none;stroke:#5e5e5e;stroke-miterlimit:10"></line><line x1="243.97" y1="311.58" x2="246.9" y2="315.87" style="fill:none;stroke:#5e5e5e;stroke-miterlimit:10"></line><line x1="209.42" y1="260.88" x2="240.44" y2="306.38" style="fill:none;stroke:#5e5e5e;stroke-miterlimit:10"></line><polyline points="213.66 233.82 211.08 244.91 226.38 250.13 222.21 253.26 204.47 253.61 207.78 258.48" style="fill:none;stroke:#5e5e5e;stroke-miterlimit:10"></polyline><line x1="215.95" y1="224.05" x2="215.02" y2="228" style="fill:none;stroke:#5e5e5e;stroke-miterlimit:10"></line><polyline points="300.82 253.51 305.69 253.61 263.25 315.87" style="fill:none;stroke:#5e5e5e;stroke-miterlimit:10"></polyline><polyline points="296.18 232.5 299.08 244.91 283.77 250.13 287.95 253.26 296.29 253.43" style="fill:none;stroke:#5e5e5e;stroke-miterlimit:10"></polyline><line x1="294.21" y1="224.05" x2="294.8" y2="226.59" style="fill:none;stroke:#5e5e5e;stroke-miterlimit:10"></line><polygon points="237.75 249.7 256.17 311.07 274.12 251.74 255.71 224.69 237.75 249.7" style="fill:#fff;stroke:#263238;stroke-miterlimit:10"></polygon><polygon points="256.17 311.07 266.43 277.16 259.12 256.06 266.66 240.77 264.33 237.35 256.62 228.1 245.48 241.97 254.12 256.52 246.87 280.08 256.17 311.07" style="fill:#C91574;stroke:#263238;stroke-miterlimit:10"></polygon><polygon points="250.75 250.84 264.79 244.57 266.66 240.77 264.33 237.35 264.2 237.2 247.18 244.82 250.75 250.84" style="fill:#263238"></polygon><polygon points="251.7 264.38 260.58 260.28 259.12 256.06 260.89 252.47 253.69 255.79 254.12 256.52 251.7 264.38" style="fill:#263238"></polygon><polygon points="251.95 297.01 261.33 294.01 263.78 285.93 249.95 290.34 251.95 297.01" style="fill:#263238"></polygon><polygon points="246.97 279.76 265.12 273.36 262.84 266.79 249.52 271.48 246.97 279.76" style="fill:#263238"></polygon><polygon points="233.51 197.23 232.21 211.16 255.94 235.6 275.28 212.46 273.98 198.1 233.51 197.23" style="fill:#fff;stroke:#263238;stroke-miterlimit:10"></polygon><polygon points="272.46 206.14 255.05 197.7 233.51 197.23 232.21 211.16 244.81 224.14 244.89 223.98 261.11 216.95 272.46 206.14" style="fill:#263238;stroke:#263238;stroke-miterlimit:10"></polygon><path d="M229.24,170.33s-5.4-1.8-5.7,3.31,6.6,16.2,6.9,14.7S229.24,170.33,229.24,170.33Z" style="fill:#fff;stroke:#263238;stroke-miterlimit:10"></path><path d="M277,170.33s5.4-1.8,5.7,3.31-6.6,16.2-6.9,14.7S277,170.33,277,170.33Z" style="fill:#fff;stroke:#263238;stroke-miterlimit:10"></path><path d="M226.84,149.92s3,47.73,4.8,51l1.8,3.3s14.11,16.51,18.61,16.21,9,.6,12.91-3,9-10.81,10.51-16.21,2.7-46.22,2.7-50.43-9.07-17.41-22-17.41S229.84,136.12,226.84,149.92Z" style="fill:#fff;stroke:#263238;stroke-miterlimit:10"></path><path d="M244.85,176.94a1.8,1.8,0,1,1-1.8-1.8A1.81,1.81,0,0,1,244.85,176.94Z" style="fill:#263238"></path><path d="M265,176.94a1.8,1.8,0,1,1-1.8-1.8A1.81,1.81,0,0,1,265,176.94Z" style="fill:#263238"></path><path d="M259,170.93s3.6-2.4,11.4-.3" style="fill:none;stroke:#263238;stroke-linecap:round;stroke-miterlimit:10;stroke-width:2px"></path><path d="M247,170.93a15.52,15.52,0,0,0-11.11-.3" style="fill:none;stroke:#263238;stroke-linecap:round;stroke-miterlimit:10;stroke-width:2px"></path><path d="M249.35,190.75a8.3,8.3,0,0,0,4.2,1.2,15,15,0,0,0,5.11-1.2s-.78,3.68-3.91,3.9C250.23,195,250.25,192.25,249.35,190.75Z" style="fill:#263238;stroke:#263238;stroke-linejoin:round"></path><path d="M246.57,199.63a32,32,0,0,0,16.09-.22" style="fill:none;stroke:#263238;stroke-miterlimit:10"></path><path d="M252,203.54s2.61,1.52,6.75-.43" style="fill:none;stroke:#263238;stroke-miterlimit:10"></path><path d="M256.19,133.41c-12.9,0-26.35,2.71-29.35,16.51,0,0,1,16.16,2.22,30.32h2.58s-2.4-11.11,0-13.51,3.6-4.2,3.6-6.3-.3-8.41-.3-8.41,10.81,4.51,21,4.21,16.21-3,16.21-3-.6,8.7.3,10.5a35,35,0,0,0,2.7,4.2l-.3,11.41h2.35c.59-12.58,1-26.18,1-28.52C278.17,146.62,269.1,133.41,256.19,133.41Z" style="fill:#263238;stroke:#263238;stroke-miterlimit:10"></path><polygon points="232.3 209.92 225.71 218.1 237.75 249.7 255.94 235.6 274.12 251.74 281.37 218.79 274.79 208.97 256.17 234.47 232.3 209.92" style="fill:#fff;stroke:#263238;stroke-miterlimit:10"></polygon><path d="M336.19,341.67c-5.86-1.35-11.2,1.65-13.94,3.64.14.86.23,1.36.23,1.36s2.18-.43,10.88,1.31a16.66,16.66,0,0,1,11.75,8.48l.85-1.57C345.23,350.68,342.69,343.17,336.19,341.67Z" style="fill:#fff;stroke:#263238;stroke-miterlimit:10"></path><path d="M165.43,331.88c-8.48,1.74-9.79,17.84-9.79,17.84l.06.25.38.84s2.17.87,10.87-.87,13.92-10,13.92-10,.81-1.45,1.85-3.53C179.47,333.79,172.18,330.5,165.43,331.88Z" style="fill:#fff;stroke:#263238;stroke-miterlimit:10"></path><path d="M155.42,360.16s-.65,4.13,1.53,6.52,7,7,9.35,8.05,5.44-.21,5.44-.21l.43-7.84Z" style="fill:#fff;stroke:#263238;stroke-miterlimit:10"></path><path d="M158.9,351s-6.09,5.88-4.78,8.92,7,7.18,8.7,9.14,8.27,2.83,8.27,2.83l1.52-11.53Z" style="fill:#fff;stroke:#263238;stroke-miterlimit:10"></path><path d="M163.91,338.62s-4.14,9.14-5.88,12.4,1.74,6.09,2.4,7.4,2.61,7.39,3.91,8.26a15.73,15.73,0,0,0,3.7,1.53l1.74.87,5-24.8,4.57-2.61S170,336.23,163.91,338.62Z" style="fill:#fff;stroke:#263238;stroke-miterlimit:10"></path><path d="M348.69,368.57s.65,4.13-1.52,6.53-7,7-9.35,8-5.44-.21-5.44-.21l-.44-7.83Z" style="fill:#fff;stroke:#263238;stroke-miterlimit:10"></path><path d="M345.21,359.43s6.09,5.88,4.79,8.92-7,7.18-8.7,9.14-8.27,2.83-8.27,2.83l-1.52-11.53Z" style="fill:#fff;stroke:#263238;stroke-miterlimit:10"></path><path d="M340.21,347s4.13,9.13,5.87,12.39-1.74,6.09-2.39,7.4-2.61,7.4-3.92,8.27a15.81,15.81,0,0,1-3.69,1.52l-1.74.87-5-24.8-4.57-2.61S334.12,344.64,340.21,347Z" style="fill:#fff;stroke:#263238;stroke-miterlimit:10"></path><path d="M262.66,263c0-5.25-3.07-9.5-6.86-9.5s-6.86,4.25-6.86,9.5c0,4.43,2.2,8.15,5.17,9.19v76.44h4.35V271.76C260.93,270.32,262.66,266.94,262.66,263Z" style="fill:#5e5e5e;stroke:#263238;stroke-miterlimit:10"></path><polygon points="357.45 455.52 149.32 455.52 173.33 338.92 333.43 338.92 357.45 455.52" style="fill:#263238"></polygon><polygon points="357.45 455.52 149.32 455.52 173.33 338.92 333.43 338.92 357.45 455.52" style="fill:#fff;opacity:0.21"></polygon><circle cx="253.57" cy="401" r="39.45" transform="translate(-209.28 296.75) rotate(-45)" style="fill:#263238;stroke:#263238;stroke-miterlimit:10"></circle><circle cx="253.57" cy="401" r="29.33" transform="translate(-209.28 296.75) rotate(-45)" style="fill:none;stroke:#5e5e5e;stroke-miterlimit:10"></circle></g><g id="freepik--Floor--inject-70"><line x1="21.87" y1="455.52" x2="480.63" y2="455.52" style="fill:none;stroke:#263238;stroke-miterlimit:10"></line></g></svg>