<svg width="100" height="100" viewBox="0 0 100 100" fill="none" xmlns="http://www.w3.org/2000/svg">
<rect x="2.5" y="2.5" width="95" height="95" rx="17.5" fill="#301934" stroke="#C91574" stroke-width="5"/>
<path d="M26.1605 68V31.6364H40.5071C43.2652 31.6364 45.6148 32.1631 47.5561 33.2166C49.4974 34.2583 50.977 35.7083 51.995 37.5668C53.0249 39.4134 53.5398 41.544 53.5398 43.9588C53.5398 46.3736 53.0189 48.5043 51.9773 50.3509C50.9356 52.1974 49.4264 53.6357 47.4496 54.6655C45.4846 55.6953 43.1054 56.2102 40.3118 56.2102H31.1676V50.049H39.0689C40.5485 50.049 41.7678 49.7945 42.7266 49.2855C43.6972 48.7647 44.4193 48.0485 44.8928 47.1371C45.3781 46.2138 45.6207 45.1544 45.6207 43.9588C45.6207 42.7514 45.3781 41.6979 44.8928 40.7983C44.4193 39.8868 43.6972 39.1825 42.7266 38.6854C41.7559 38.1764 40.5249 37.9219 39.0334 37.9219H33.8487V68H26.1605ZM58.3915 68V40.7273H65.7246V45.4858H66.0087C66.5059 43.7931 67.3404 42.5147 68.5123 41.6506C69.6841 40.7746 71.0336 40.3366 72.5605 40.3366C72.9393 40.3366 73.3477 40.3603 73.7857 40.4077C74.2237 40.455 74.6084 40.5201 74.9398 40.603V47.3146C74.5847 47.2081 74.0935 47.1134 73.4661 47.0305C72.8387 46.9477 72.2646 46.9062 71.7438 46.9062C70.6311 46.9062 69.6368 47.1489 68.7608 47.6342C67.8967 48.1077 67.2102 48.7706 66.7012 49.6229C66.204 50.4751 65.9554 51.4576 65.9554 52.5703V68H58.3915Z" fill="#C91574"/>
<path d="M13.6321 81V73.7273H16.5014C17.053 73.7273 17.523 73.8326 17.9112 74.0433C18.2995 74.2517 18.5954 74.5417 18.799 74.9134C19.005 75.2827 19.108 75.7088 19.108 76.1918C19.108 76.6747 19.0038 77.1009 18.7955 77.4702C18.5871 77.8395 18.2853 78.1271 17.8899 78.3331C17.4969 78.5391 17.0211 78.642 16.4624 78.642H14.6335V77.4098H16.2138C16.5097 77.4098 16.7536 77.3589 16.9453 77.2571C17.1394 77.1529 17.2839 77.0097 17.3786 76.8274C17.4756 76.6428 17.5241 76.4309 17.5241 76.1918C17.5241 75.9503 17.4756 75.7396 17.3786 75.5597C17.2839 75.3774 17.1394 75.2365 16.9453 75.1371C16.7512 75.0353 16.505 74.9844 16.2067 74.9844H15.1697V81H13.6321ZM20.0783 81V75.5455H21.5449V76.4972H21.6017C21.7012 76.1586 21.8681 75.9029 22.1025 75.7301C22.3368 75.5549 22.6067 75.4673 22.9121 75.4673C22.9879 75.4673 23.0695 75.4721 23.1571 75.4815C23.2447 75.491 23.3217 75.504 23.388 75.5206V76.8629C23.3169 76.8416 23.2187 76.8227 23.0932 76.8061C22.9677 76.7895 22.8529 76.7812 22.7488 76.7812C22.5262 76.7812 22.3274 76.8298 22.1522 76.9268C21.9793 77.0215 21.842 77.1541 21.7402 77.3246C21.6408 77.495 21.5911 77.6915 21.5911 77.9141V81H20.0783ZM25.5692 81.103C25.2212 81.103 24.9111 81.0426 24.6388 80.9219C24.3666 80.7988 24.1512 80.6177 23.9925 80.3786C23.8363 80.1371 23.7582 79.8364 23.7582 79.4766C23.7582 79.1735 23.8138 78.919 23.9251 78.7131C24.0363 78.5071 24.1879 78.3414 24.3796 78.2159C24.5714 78.0904 24.7892 77.9957 25.033 77.9318C25.2792 77.8679 25.5373 77.8229 25.8072 77.7969C26.1244 77.7637 26.3801 77.733 26.5742 77.7045C26.7683 77.6738 26.9092 77.6288 26.9968 77.5696C27.0844 77.5104 27.1282 77.4228 27.1282 77.3068V77.2855C27.1282 77.0606 27.0572 76.8866 26.9151 76.7635C26.7754 76.6404 26.5766 76.5788 26.3185 76.5788C26.0463 76.5788 25.8297 76.6392 25.6687 76.7599C25.5077 76.8783 25.4012 77.0275 25.3491 77.2074L23.9499 77.0938C24.021 76.7623 24.1606 76.4759 24.369 76.2344C24.5773 75.9905 24.846 75.8035 25.1751 75.6733C25.5065 75.5407 25.89 75.4744 26.3256 75.4744C26.6287 75.4744 26.9187 75.5099 27.1957 75.581C27.475 75.652 27.7224 75.7621 27.9379 75.9112C28.1557 76.0604 28.3273 76.2521 28.4528 76.4865C28.5782 76.7185 28.641 76.9967 28.641 77.321V81H27.2063V80.2436H27.1637C27.0761 80.4141 26.9589 80.5644 26.8121 80.6946C26.6654 80.8224 26.489 80.9231 26.283 80.9964C26.0771 81.0675 25.8391 81.103 25.5692 81.103ZM26.0025 80.0589C26.225 80.0589 26.4215 80.0152 26.592 79.9276C26.7624 79.8376 26.8962 79.7169 26.9933 79.5653C27.0903 79.4138 27.1388 79.2422 27.1388 79.0504V78.4716C27.0915 78.5024 27.0264 78.5308 26.9435 78.5568C26.863 78.5805 26.7719 78.603 26.6701 78.6243C26.5683 78.6432 26.4665 78.661 26.3647 78.6776C26.2629 78.6918 26.1706 78.7048 26.0877 78.7166C25.9102 78.7427 25.7551 78.7841 25.6225 78.8409C25.4899 78.8977 25.387 78.9747 25.3136 79.0717C25.2402 79.1664 25.2035 79.2848 25.2035 79.4268C25.2035 79.6328 25.2781 79.7902 25.4272 79.8991C25.5787 80.0057 25.7705 80.0589 26.0025 80.0589ZM34.353 77.1009L32.968 77.1861C32.9444 77.0677 32.8935 76.9612 32.8153 76.8665C32.7372 76.7694 32.6342 76.6925 32.5064 76.6357C32.3809 76.5765 32.2306 76.5469 32.0554 76.5469C31.821 76.5469 31.6233 76.5966 31.4624 76.696C31.3014 76.7931 31.2209 76.9233 31.2209 77.0866C31.2209 77.2169 31.273 77.3269 31.3771 77.4169C31.4813 77.5069 31.66 77.5791 31.9134 77.6335L32.9006 77.8324C33.4309 77.9413 33.8262 78.1165 34.0866 78.358C34.3471 78.5994 34.4773 78.9167 34.4773 79.3097C34.4773 79.6671 34.3719 79.9808 34.1612 80.2507C33.9529 80.5206 33.6664 80.7313 33.3018 80.8828C32.9396 81.032 32.5218 81.1065 32.0483 81.1065C31.3262 81.1065 30.7509 80.9562 30.3224 80.6555C29.8963 80.3525 29.6465 79.9406 29.5732 79.4197L31.0611 79.3416C31.1061 79.5618 31.215 79.7299 31.3878 79.8459C31.5606 79.9595 31.782 80.0163 32.0518 80.0163C32.317 80.0163 32.5301 79.9654 32.6911 79.8636C32.8544 79.7595 32.9373 79.6257 32.9396 79.4624C32.9373 79.325 32.8793 79.2126 32.7656 79.125C32.652 79.035 32.4768 78.9664 32.2401 78.919L31.2955 78.7308C30.7628 78.6243 30.3662 78.4396 30.1058 78.1768C29.8478 77.9141 29.7188 77.5791 29.7188 77.1719C29.7188 76.8215 29.8134 76.5196 30.0028 76.2663C30.1946 76.013 30.4633 75.8177 30.8089 75.6804C31.157 75.5431 31.5642 75.4744 32.0305 75.4744C32.7195 75.4744 33.2616 75.62 33.657 75.9112C34.0547 76.2024 34.2867 76.599 34.353 77.1009ZM37.9157 81.1065C37.3546 81.1065 36.8716 80.9929 36.4668 80.7656C36.0643 80.536 35.7542 80.2116 35.5364 79.7926C35.3186 79.3712 35.2097 78.8729 35.2097 78.2976C35.2097 77.7365 35.3186 77.2441 35.5364 76.8203C35.7542 76.3965 36.0608 76.0663 36.4561 75.8295C36.8539 75.5928 37.3203 75.4744 37.8553 75.4744C38.2151 75.4744 38.5501 75.5324 38.8603 75.6484C39.1728 75.7621 39.445 75.9337 39.677 76.1634C39.9114 76.393 40.0937 76.6818 40.2239 77.0298C40.3541 77.3755 40.4192 77.7803 40.4192 78.2443V78.6598H35.8134V77.7223H38.9952C38.9952 77.5045 38.9479 77.3116 38.8532 77.1435C38.7585 76.9754 38.6271 76.844 38.459 76.7493C38.2933 76.6522 38.1003 76.6037 37.8801 76.6037C37.6505 76.6037 37.4469 76.657 37.2694 76.7635C37.0942 76.8677 36.9569 77.0085 36.8574 77.1861C36.758 77.3613 36.7071 77.5566 36.7047 77.772V78.6634C36.7047 78.9332 36.7544 79.1664 36.8539 79.3629C36.9557 79.5594 37.0989 79.7109 37.2836 79.8175C37.4682 79.924 37.6872 79.9773 37.9405 79.9773C38.1086 79.9773 38.2625 79.9536 38.4022 79.9062C38.5418 79.8589 38.6614 79.7879 38.7608 79.6932C38.8603 79.5985 38.936 79.4825 38.9881 79.3452L40.3873 79.4375C40.3162 79.7737 40.1706 80.0672 39.9505 80.3182C39.7327 80.5668 39.4509 80.7609 39.1053 80.9006C38.762 81.0379 38.3655 81.1065 37.9157 81.1065ZM43.8709 81.1065C43.3193 81.1065 42.8423 80.9893 42.4398 80.755C42.0397 80.5182 41.7308 80.1892 41.513 79.7678C41.2952 79.344 41.1863 78.8527 41.1863 78.294C41.1863 77.7306 41.2952 77.2382 41.513 76.8168C41.7308 76.393 42.0397 76.0639 42.4398 75.8295C42.8423 75.5928 43.3193 75.4744 43.8709 75.4744C44.4225 75.4744 44.8984 75.5928 45.2985 75.8295C45.7009 76.0639 46.0111 76.393 46.2289 76.8168C46.4467 77.2382 46.5556 77.7306 46.5556 78.294C46.5556 78.8527 46.4467 79.344 46.2289 79.7678C46.0111 80.1892 45.7009 80.5182 45.2985 80.755C44.8984 80.9893 44.4225 81.1065 43.8709 81.1065ZM43.878 79.9347C44.129 79.9347 44.3385 79.8636 44.5066 79.7216C44.6747 79.5772 44.8013 79.3807 44.8865 79.1321C44.9741 78.8835 45.0179 78.6006 45.0179 78.2834C45.0179 77.9661 44.9741 77.6832 44.8865 77.4347C44.8013 77.1861 44.6747 76.9896 44.5066 76.8452C44.3385 76.7008 44.129 76.6286 43.878 76.6286C43.6247 76.6286 43.4116 76.7008 43.2388 76.8452C43.0684 76.9896 42.9393 77.1861 42.8517 77.4347C42.7665 77.6832 42.7239 77.9661 42.7239 78.2834C42.7239 78.6006 42.7665 78.8835 42.8517 79.1321C42.9393 79.3807 43.0684 79.5772 43.2388 79.7216C43.4116 79.8636 43.6247 79.9347 43.878 79.9347ZM49.5492 81.0888C49.1349 81.0888 48.7596 80.9822 48.4235 80.7692C48.0897 80.5537 47.8245 80.2377 47.628 79.821C47.4339 79.402 47.3368 78.8883 47.3368 78.2798C47.3368 77.6548 47.4374 77.1352 47.6387 76.7209C47.8399 76.3042 48.1074 75.9929 48.4412 75.7869C48.7774 75.5786 49.1455 75.4744 49.5456 75.4744C49.851 75.4744 50.1055 75.5265 50.3091 75.6307C50.5151 75.7325 50.6808 75.8603 50.8063 76.0142C50.9341 76.1657 51.0312 76.3149 51.0975 76.4616H51.1436V73.7273H52.6529V81H51.1614V80.1264H51.0975C51.0265 80.2779 50.9258 80.4283 50.7956 80.5774C50.6678 80.7242 50.5009 80.8461 50.2949 80.9432C50.0913 81.0402 49.8427 81.0888 49.5492 81.0888ZM50.0286 79.8849C50.2724 79.8849 50.4784 79.8187 50.6465 79.6861C50.8169 79.5511 50.9471 79.3629 51.0371 79.1214C51.1294 78.88 51.1756 78.5971 51.1756 78.2727C51.1756 77.9484 51.1306 77.6667 51.0407 77.4276C50.9507 77.1884 50.8205 77.0038 50.65 76.8736C50.4796 76.7434 50.2724 76.6783 50.0286 76.6783C49.78 76.6783 49.5705 76.7457 49.4 76.8807C49.2296 77.0156 49.1006 77.2027 49.013 77.4418C48.9254 77.6809 48.8816 77.9579 48.8816 78.2727C48.8816 78.59 48.9254 78.8705 49.013 79.1143C49.1029 79.3558 49.2319 79.5452 49.4 79.6825C49.5705 79.8175 49.78 79.8849 50.0286 79.8849ZM54.8306 83.0455C54.6388 83.0455 54.4589 83.0301 54.2908 82.9993C54.1251 82.9709 53.9878 82.9342 53.8789 82.8892L54.2198 81.7599C54.3974 81.8144 54.5572 81.844 54.6992 81.8487C54.8436 81.8535 54.9679 81.8203 55.0721 81.7493C55.1786 81.6783 55.265 81.5575 55.3313 81.3871L55.4201 81.1562L53.4634 75.5455H55.0543L56.1836 79.5511H56.2404L57.3803 75.5455H58.9819L56.8619 81.5895C56.7601 81.883 56.6216 82.1387 56.4464 82.3565C56.2736 82.5767 56.0546 82.746 55.7894 82.8643C55.5243 82.9851 55.2047 83.0455 54.8306 83.0455ZM59.756 81V75.5455H61.1978V76.5078H61.2617C61.3754 76.1882 61.5647 75.9361 61.8299 75.7514C62.0951 75.5668 62.4123 75.4744 62.7816 75.4744C63.1557 75.4744 63.4741 75.5679 63.7369 75.755C63.9996 75.9396 64.1748 76.1906 64.2624 76.5078H64.3192C64.4305 76.1953 64.6317 75.9455 64.9229 75.7585C65.2165 75.5691 65.5633 75.4744 65.9634 75.4744C66.4724 75.4744 66.8855 75.6366 67.2028 75.9609C67.5224 76.2829 67.6822 76.7398 67.6822 77.3317V81H66.1729V77.63C66.1729 77.3269 66.0924 77.0997 65.9315 76.9482C65.7705 76.7966 65.5692 76.7209 65.3278 76.7209C65.0531 76.7209 64.8389 76.8085 64.685 76.9837C64.5311 77.1565 64.4542 77.3849 64.4542 77.669V81H62.9876V77.598C62.9876 77.3305 62.9106 77.1174 62.7567 76.9588C62.6052 76.8002 62.4052 76.7209 62.1566 76.7209C61.9885 76.7209 61.837 76.7635 61.7021 76.8487C61.5695 76.9316 61.4641 77.0488 61.386 77.2003C61.3079 77.3494 61.2688 77.5246 61.2688 77.7259V81H59.756ZM68.8771 81V75.5455H70.3899V81H68.8771ZM69.6371 74.8423C69.4122 74.8423 69.2192 74.7678 69.0582 74.6186C68.8996 74.4671 68.8203 74.286 68.8203 74.0753C68.8203 73.867 68.8996 73.6882 69.0582 73.5391C69.2192 73.3875 69.4122 73.3118 69.6371 73.3118C69.862 73.3118 70.0537 73.3875 70.2124 73.5391C70.3733 73.6882 70.4538 73.867 70.4538 74.0753C70.4538 74.286 70.3733 74.4671 70.2124 74.6186C70.0537 74.7678 69.862 74.8423 69.6371 74.8423ZM75.0996 78.6776V75.5455H76.6124V81H75.16V80.0092H75.1032C74.9801 80.3288 74.7753 80.5857 74.4888 80.7798C74.2047 80.974 73.8579 81.071 73.4483 81.071C73.0837 81.071 72.763 80.9882 72.486 80.8224C72.209 80.6567 71.9924 80.4212 71.8361 80.1158C71.6822 79.8104 71.6041 79.4446 71.6017 79.0185V75.5455H73.1145V78.7486C73.1169 79.0705 73.2033 79.325 73.3738 79.5121C73.5442 79.6991 73.7727 79.7926 74.0591 79.7926C74.2414 79.7926 74.4119 79.7512 74.5705 79.6683C74.7291 79.5831 74.8569 79.4576 74.954 79.2919C75.0534 79.1262 75.102 78.9214 75.0996 78.6776ZM77.8224 81V75.5455H79.2642V76.5078H79.3281C79.4418 76.1882 79.6312 75.9361 79.8963 75.7514C80.1615 75.5668 80.4787 75.4744 80.848 75.4744C81.2221 75.4744 81.5405 75.5679 81.8033 75.755C82.0661 75.9396 82.2412 76.1906 82.3288 76.5078H82.3857C82.4969 76.1953 82.6982 75.9455 82.9893 75.7585C83.2829 75.5691 83.6297 75.4744 84.0298 75.4744C84.5388 75.4744 84.9519 75.6366 85.2692 75.9609C85.5888 76.2829 85.7486 76.7398 85.7486 77.3317V81H84.2393V77.63C84.2393 77.3269 84.1589 77.0997 83.9979 76.9482C83.8369 76.7966 83.6357 76.7209 83.3942 76.7209C83.1196 76.7209 82.9053 76.8085 82.7514 76.9837C82.5975 77.1565 82.5206 77.3849 82.5206 77.669V81H81.054V77.598C81.054 77.3305 80.977 77.1174 80.8232 76.9588C80.6716 76.8002 80.4716 76.7209 80.223 76.7209C80.0549 76.7209 79.9034 76.7635 79.7685 76.8487C79.6359 76.9316 79.5305 77.0488 79.4524 77.2003C79.3743 77.3494 79.3352 77.5246 79.3352 77.7259V81H77.8224Z" fill="white"/>
<path d="M10.66 27V24.14H15.44C15.7733 24.14 16.0733 24.06 16.34 23.9C16.62 23.74 16.8333 23.5267 16.98 23.26C17.14 22.9933 17.22 22.7 17.22 22.38C17.22 22.06 17.14 21.7733 16.98 21.52C16.8333 21.2533 16.62 21.04 16.34 20.88C16.0733 20.72 15.7733 20.64 15.44 20.64H11.12V13H19.58V15.86H14.26V17.9H15.82C16.7 17.9 17.4867 18.1 18.18 18.5C18.8867 18.9 19.44 19.4467 19.84 20.14C20.2533 20.82 20.46 21.58 20.46 22.42C20.46 23.2467 20.2533 24.0133 19.84 24.72C19.44 25.4133 18.8867 25.9667 18.18 26.38C17.4867 26.7933 16.7 27 15.82 27H10.66ZM24.3909 27L27.5509 22.22C27.3776 22.2467 27.2109 22.2667 27.0509 22.28C26.8909 22.28 26.7243 22.2733 26.5509 22.26C25.6443 22.2067 24.8509 21.9733 24.1709 21.56C23.4909 21.1333 22.9643 20.58 22.5909 19.9C22.2176 19.2067 22.0309 18.4333 22.0309 17.58C22.0309 16.6867 22.2443 15.88 22.6709 15.16C23.1109 14.4267 23.7376 13.8467 24.5509 13.42C25.3776 12.98 26.3576 12.76 27.4909 12.76C28.6376 12.76 29.6176 12.9733 30.4309 13.4C31.2443 13.8267 31.8709 14.4067 32.3109 15.14C32.7509 15.8733 32.9709 16.6867 32.9709 17.58C32.9709 18.1667 32.8909 18.74 32.7309 19.3C32.5843 19.86 32.3709 20.4133 32.0909 20.96C31.8243 21.4933 31.5109 22.0333 31.1509 22.58L28.1909 27H24.3909ZM27.4909 19.6C27.9843 19.6 28.3976 19.5133 28.7309 19.34C29.0643 19.1533 29.3109 18.9067 29.4709 18.6C29.6443 18.2933 29.7309 17.9667 29.7309 17.62C29.7309 17.2467 29.6443 16.9133 29.4709 16.62C29.3109 16.3133 29.0643 16.0733 28.7309 15.9C28.3976 15.7133 27.9843 15.62 27.4909 15.62C27.0109 15.62 26.6043 15.7133 26.2709 15.9C25.9376 16.0733 25.6843 16.3133 25.5109 16.62C25.3509 16.9133 25.2709 17.2467 25.2709 17.62C25.2709 17.9667 25.3509 18.2933 25.5109 18.6C25.6843 18.9067 25.9376 19.1533 26.2709 19.34C26.6043 19.5133 27.0109 19.6 27.4909 19.6Z" fill="white"/>
</svg>
