<svg width="536" height="100" viewBox="0 0 536 100" fill="none" xmlns="http://www.w3.org/2000/svg">
<path d="M30.1605 68V31.6364H44.5071C47.2652 31.6364 49.6148 32.1631 51.5561 33.2166C53.4974 34.2583 54.977 35.7083 55.995 37.5668C57.0249 39.4134 57.5398 41.544 57.5398 43.9588C57.5398 46.3736 57.0189 48.5043 55.9773 50.3509C54.9356 52.1974 53.4264 53.6357 51.4496 54.6655C49.4846 55.6953 47.1054 56.2102 44.3118 56.2102H35.1676V50.049H43.0689C44.5485 50.049 45.7678 49.7945 46.7266 49.2855C47.6972 48.7647 48.4193 48.0485 48.8928 47.1371C49.3781 46.2138 49.6207 45.1544 49.6207 43.9588C49.6207 42.7514 49.3781 41.6979 48.8928 40.7983C48.4193 39.8868 47.6972 39.1825 46.7266 38.6854C45.7559 38.1764 44.5249 37.9219 43.0334 37.9219H37.8487V68H30.1605ZM62.3915 68V40.7273H69.7246V45.4858H70.0087C70.5059 43.7931 71.3404 42.5147 72.5123 41.6506C73.6841 40.7746 75.0336 40.3366 76.5605 40.3366C76.9393 40.3366 77.3477 40.3603 77.7857 40.4077C78.2237 40.455 78.6084 40.5201 78.9398 40.603V47.3146C78.5847 47.2081 78.0935 47.1134 77.4661 47.0305C76.8387 46.9477 76.2646 46.9062 75.7438 46.9062C74.6311 46.9062 73.6368 47.1489 72.7608 47.6342C71.8967 48.1077 71.2102 48.7706 70.7012 49.6229C70.204 50.4751 69.9554 51.4576 69.9554 52.5703V68H62.3915Z" fill="#C91574"/>
<path d="M17.6321 81V73.7273H20.5014C21.053 73.7273 21.523 73.8326 21.9112 74.0433C22.2995 74.2517 22.5954 74.5417 22.799 74.9134C23.005 75.2827 23.108 75.7088 23.108 76.1918C23.108 76.6747 23.0038 77.1009 22.7955 77.4702C22.5871 77.8395 22.2853 78.1271 21.8899 78.3331C21.4969 78.5391 21.0211 78.642 20.4624 78.642H18.6335V77.4098H20.2138C20.5097 77.4098 20.7536 77.3589 20.9453 77.2571C21.1394 77.1529 21.2839 77.0097 21.3786 76.8274C21.4756 76.6428 21.5241 76.4309 21.5241 76.1918C21.5241 75.9503 21.4756 75.7396 21.3786 75.5597C21.2839 75.3774 21.1394 75.2365 20.9453 75.1371C20.7512 75.0353 20.505 74.9844 20.2067 74.9844H19.1697V81H17.6321ZM24.0783 81V75.5455H25.5449V76.4972H25.6017C25.7012 76.1586 25.8681 75.9029 26.1025 75.7301C26.3368 75.5549 26.6067 75.4673 26.9121 75.4673C26.9879 75.4673 27.0695 75.4721 27.1571 75.4815C27.2447 75.491 27.3217 75.504 27.388 75.5206V76.8629C27.3169 76.8416 27.2187 76.8227 27.0932 76.8061C26.9677 76.7895 26.8529 76.7812 26.7488 76.7812C26.5262 76.7812 26.3274 76.8298 26.1522 76.9268C25.9793 77.0215 25.842 77.1541 25.7402 77.3246C25.6408 77.495 25.5911 77.6915 25.5911 77.9141V81H24.0783ZM29.5692 81.103C29.2212 81.103 28.9111 81.0426 28.6388 80.9219C28.3666 80.7988 28.1512 80.6177 27.9925 80.3786C27.8363 80.1371 27.7582 79.8364 27.7582 79.4766C27.7582 79.1735 27.8138 78.919 27.9251 78.7131C28.0363 78.5071 28.1879 78.3414 28.3796 78.2159C28.5714 78.0904 28.7892 77.9957 29.033 77.9318C29.2792 77.8679 29.5373 77.8229 29.8072 77.7969C30.1244 77.7637 30.3801 77.733 30.5742 77.7045C30.7683 77.6738 30.9092 77.6288 30.9968 77.5696C31.0844 77.5104 31.1282 77.4228 31.1282 77.3068V77.2855C31.1282 77.0606 31.0572 76.8866 30.9151 76.7635C30.7754 76.6404 30.5766 76.5788 30.3185 76.5788C30.0463 76.5788 29.8297 76.6392 29.6687 76.7599C29.5077 76.8783 29.4012 77.0275 29.3491 77.2074L27.9499 77.0938C28.021 76.7623 28.1606 76.4759 28.369 76.2344C28.5773 75.9905 28.846 75.8035 29.1751 75.6733C29.5065 75.5407 29.89 75.4744 30.3256 75.4744C30.6287 75.4744 30.9187 75.5099 31.1957 75.581C31.475 75.652 31.7224 75.7621 31.9379 75.9112C32.1557 76.0604 32.3273 76.2521 32.4528 76.4865C32.5782 76.7185 32.641 76.9967 32.641 77.321V81H31.2063V80.2436H31.1637C31.0761 80.4141 30.9589 80.5644 30.8121 80.6946C30.6654 80.8224 30.489 80.9231 30.283 80.9964C30.0771 81.0675 29.8391 81.103 29.5692 81.103ZM30.0025 80.0589C30.225 80.0589 30.4215 80.0152 30.592 79.9276C30.7624 79.8376 30.8962 79.7169 30.9933 79.5653C31.0903 79.4138 31.1388 79.2422 31.1388 79.0504V78.4716C31.0915 78.5024 31.0264 78.5308 30.9435 78.5568C30.863 78.5805 30.7719 78.603 30.6701 78.6243C30.5683 78.6432 30.4665 78.661 30.3647 78.6776C30.2629 78.6918 30.1706 78.7048 30.0877 78.7166C29.9102 78.7427 29.7551 78.7841 29.6225 78.8409C29.4899 78.8977 29.387 78.9747 29.3136 79.0717C29.2402 79.1664 29.2035 79.2848 29.2035 79.4268C29.2035 79.6328 29.2781 79.7902 29.4272 79.8991C29.5787 80.0057 29.7705 80.0589 30.0025 80.0589ZM38.353 77.1009L36.968 77.1861C36.9444 77.0677 36.8935 76.9612 36.8153 76.8665C36.7372 76.7694 36.6342 76.6925 36.5064 76.6357C36.3809 76.5765 36.2306 76.5469 36.0554 76.5469C35.821 76.5469 35.6233 76.5966 35.4624 76.696C35.3014 76.7931 35.2209 76.9233 35.2209 77.0866C35.2209 77.2169 35.273 77.3269 35.3771 77.4169C35.4813 77.5069 35.66 77.5791 35.9134 77.6335L36.9006 77.8324C37.4309 77.9413 37.8262 78.1165 38.0866 78.358C38.3471 78.5994 38.4773 78.9167 38.4773 79.3097C38.4773 79.6671 38.3719 79.9808 38.1612 80.2507C37.9529 80.5206 37.6664 80.7313 37.3018 80.8828C36.9396 81.032 36.5218 81.1065 36.0483 81.1065C35.3262 81.1065 34.7509 80.9562 34.3224 80.6555C33.8963 80.3525 33.6465 79.9406 33.5732 79.4197L35.0611 79.3416C35.1061 79.5618 35.215 79.7299 35.3878 79.8459C35.5606 79.9595 35.782 80.0163 36.0518 80.0163C36.317 80.0163 36.5301 79.9654 36.6911 79.8636C36.8544 79.7595 36.9373 79.6257 36.9396 79.4624C36.9373 79.325 36.8793 79.2126 36.7656 79.125C36.652 79.035 36.4768 78.9664 36.2401 78.919L35.2955 78.7308C34.7628 78.6243 34.3662 78.4396 34.1058 78.1768C33.8478 77.9141 33.7188 77.5791 33.7188 77.1719C33.7188 76.8215 33.8134 76.5196 34.0028 76.2663C34.1946 76.013 34.4633 75.8177 34.8089 75.6804C35.157 75.5431 35.5642 75.4744 36.0305 75.4744C36.7195 75.4744 37.2616 75.62 37.657 75.9112C38.0547 76.2024 38.2867 76.599 38.353 77.1009ZM41.9157 81.1065C41.3546 81.1065 40.8716 80.9929 40.4668 80.7656C40.0643 80.536 39.7542 80.2116 39.5364 79.7926C39.3186 79.3712 39.2097 78.8729 39.2097 78.2976C39.2097 77.7365 39.3186 77.2441 39.5364 76.8203C39.7542 76.3965 40.0608 76.0663 40.4561 75.8295C40.8539 75.5928 41.3203 75.4744 41.8553 75.4744C42.2151 75.4744 42.5501 75.5324 42.8603 75.6484C43.1728 75.7621 43.445 75.9337 43.677 76.1634C43.9114 76.393 44.0937 76.6818 44.2239 77.0298C44.3541 77.3755 44.4192 77.7803 44.4192 78.2443V78.6598H39.8134V77.7223H42.9952C42.9952 77.5045 42.9479 77.3116 42.8532 77.1435C42.7585 76.9754 42.6271 76.844 42.459 76.7493C42.2933 76.6522 42.1003 76.6037 41.8801 76.6037C41.6505 76.6037 41.4469 76.657 41.2694 76.7635C41.0942 76.8677 40.9569 77.0085 40.8574 77.1861C40.758 77.3613 40.7071 77.5566 40.7047 77.772V78.6634C40.7047 78.9332 40.7544 79.1664 40.8539 79.3629C40.9557 79.5594 41.0989 79.7109 41.2836 79.8175C41.4682 79.924 41.6872 79.9773 41.9405 79.9773C42.1086 79.9773 42.2625 79.9536 42.4022 79.9062C42.5418 79.8589 42.6614 79.7879 42.7608 79.6932C42.8603 79.5985 42.936 79.4825 42.9881 79.3452L44.3873 79.4375C44.3162 79.7737 44.1706 80.0672 43.9505 80.3182C43.7327 80.5668 43.4509 80.7609 43.1053 80.9006C42.762 81.0379 42.3655 81.1065 41.9157 81.1065ZM47.8709 81.1065C47.3193 81.1065 46.8423 80.9893 46.4398 80.755C46.0397 80.5182 45.7308 80.1892 45.513 79.7678C45.2952 79.344 45.1863 78.8527 45.1863 78.294C45.1863 77.7306 45.2952 77.2382 45.513 76.8168C45.7308 76.393 46.0397 76.0639 46.4398 75.8295C46.8423 75.5928 47.3193 75.4744 47.8709 75.4744C48.4225 75.4744 48.8984 75.5928 49.2985 75.8295C49.7009 76.0639 50.0111 76.393 50.2289 76.8168C50.4467 77.2382 50.5556 77.7306 50.5556 78.294C50.5556 78.8527 50.4467 79.344 50.2289 79.7678C50.0111 80.1892 49.7009 80.5182 49.2985 80.755C48.8984 80.9893 48.4225 81.1065 47.8709 81.1065ZM47.878 79.9347C48.129 79.9347 48.3385 79.8636 48.5066 79.7216C48.6747 79.5772 48.8013 79.3807 48.8865 79.1321C48.9741 78.8835 49.0179 78.6006 49.0179 78.2834C49.0179 77.9661 48.9741 77.6832 48.8865 77.4347C48.8013 77.1861 48.6747 76.9896 48.5066 76.8452C48.3385 76.7008 48.129 76.6286 47.878 76.6286C47.6247 76.6286 47.4116 76.7008 47.2388 76.8452C47.0684 76.9896 46.9393 77.1861 46.8517 77.4347C46.7665 77.6832 46.7239 77.9661 46.7239 78.2834C46.7239 78.6006 46.7665 78.8835 46.8517 79.1321C46.9393 79.3807 47.0684 79.5772 47.2388 79.7216C47.4116 79.8636 47.6247 79.9347 47.878 79.9347ZM53.5492 81.0888C53.1349 81.0888 52.7596 80.9822 52.4235 80.7692C52.0897 80.5537 51.8245 80.2377 51.628 79.821C51.4339 79.402 51.3368 78.8883 51.3368 78.2798C51.3368 77.6548 51.4374 77.1352 51.6387 76.7209C51.8399 76.3042 52.1074 75.9929 52.4412 75.7869C52.7774 75.5786 53.1455 75.4744 53.5456 75.4744C53.851 75.4744 54.1055 75.5265 54.3091 75.6307C54.5151 75.7325 54.6808 75.8603 54.8063 76.0142C54.9341 76.1657 55.0312 76.3149 55.0975 76.4616H55.1436V73.7273H56.6529V81H55.1614V80.1264H55.0975C55.0265 80.2779 54.9258 80.4283 54.7956 80.5774C54.6678 80.7242 54.5009 80.8461 54.2949 80.9432C54.0913 81.0402 53.8427 81.0888 53.5492 81.0888ZM54.0286 79.8849C54.2724 79.8849 54.4784 79.8187 54.6465 79.6861C54.8169 79.5511 54.9471 79.3629 55.0371 79.1214C55.1294 78.88 55.1756 78.5971 55.1756 78.2727C55.1756 77.9484 55.1306 77.6667 55.0407 77.4276C54.9507 77.1884 54.8205 77.0038 54.65 76.8736C54.4796 76.7434 54.2724 76.6783 54.0286 76.6783C53.78 76.6783 53.5705 76.7457 53.4 76.8807C53.2296 77.0156 53.1006 77.2027 53.013 77.4418C52.9254 77.6809 52.8816 77.9579 52.8816 78.2727C52.8816 78.59 52.9254 78.8705 53.013 79.1143C53.1029 79.3558 53.2319 79.5452 53.4 79.6825C53.5705 79.8175 53.78 79.8849 54.0286 79.8849ZM58.8306 83.0455C58.6388 83.0455 58.4589 83.0301 58.2908 82.9993C58.1251 82.9709 57.9878 82.9342 57.8789 82.8892L58.2198 81.7599C58.3974 81.8144 58.5572 81.844 58.6992 81.8487C58.8436 81.8535 58.9679 81.8203 59.0721 81.7493C59.1786 81.6783 59.265 81.5575 59.3313 81.3871L59.4201 81.1562L57.4634 75.5455H59.0543L60.1836 79.5511H60.2404L61.3803 75.5455H62.9819L60.8619 81.5895C60.7601 81.883 60.6216 82.1387 60.4464 82.3565C60.2736 82.5767 60.0546 82.746 59.7894 82.8643C59.5243 82.9851 59.2047 83.0455 58.8306 83.0455ZM63.756 81V75.5455H65.1978V76.5078H65.2617C65.3754 76.1882 65.5647 75.9361 65.8299 75.7514C66.0951 75.5668 66.4123 75.4744 66.7816 75.4744C67.1557 75.4744 67.4741 75.5679 67.7369 75.755C67.9996 75.9396 68.1748 76.1906 68.2624 76.5078H68.3192C68.4305 76.1953 68.6317 75.9455 68.9229 75.7585C69.2165 75.5691 69.5633 75.4744 69.9634 75.4744C70.4724 75.4744 70.8855 75.6366 71.2028 75.9609C71.5224 76.2829 71.6822 76.7398 71.6822 77.3317V81H70.1729V77.63C70.1729 77.3269 70.0924 77.0997 69.9315 76.9482C69.7705 76.7966 69.5692 76.7209 69.3278 76.7209C69.0531 76.7209 68.8389 76.8085 68.685 76.9837C68.5311 77.1565 68.4542 77.3849 68.4542 77.669V81H66.9876V77.598C66.9876 77.3305 66.9106 77.1174 66.7567 76.9588C66.6052 76.8002 66.4052 76.7209 66.1566 76.7209C65.9885 76.7209 65.837 76.7635 65.7021 76.8487C65.5695 76.9316 65.4641 77.0488 65.386 77.2003C65.3079 77.3494 65.2688 77.5246 65.2688 77.7259V81H63.756ZM72.8771 81V75.5455H74.3899V81H72.8771ZM73.6371 74.8423C73.4122 74.8423 73.2192 74.7678 73.0582 74.6186C72.8996 74.4671 72.8203 74.286 72.8203 74.0753C72.8203 73.867 72.8996 73.6882 73.0582 73.5391C73.2192 73.3875 73.4122 73.3118 73.6371 73.3118C73.862 73.3118 74.0537 73.3875 74.2124 73.5391C74.3733 73.6882 74.4538 73.867 74.4538 74.0753C74.4538 74.286 74.3733 74.4671 74.2124 74.6186C74.0537 74.7678 73.862 74.8423 73.6371 74.8423ZM79.0996 78.6776V75.5455H80.6124V81H79.16V80.0092H79.1032C78.9801 80.3288 78.7753 80.5857 78.4888 80.7798C78.2047 80.974 77.8579 81.071 77.4483 81.071C77.0837 81.071 76.763 80.9882 76.486 80.8224C76.209 80.6567 75.9924 80.4212 75.8361 80.1158C75.6822 79.8104 75.6041 79.4446 75.6017 79.0185V75.5455H77.1145V78.7486C77.1169 79.0705 77.2033 79.325 77.3738 79.5121C77.5442 79.6991 77.7727 79.7926 78.0591 79.7926C78.2414 79.7926 78.4119 79.7512 78.5705 79.6683C78.7291 79.5831 78.8569 79.4576 78.954 79.2919C79.0534 79.1262 79.102 78.9214 79.0996 78.6776ZM81.8224 81V75.5455H83.2642V76.5078H83.3281C83.4418 76.1882 83.6312 75.9361 83.8963 75.7514C84.1615 75.5668 84.4787 75.4744 84.848 75.4744C85.2221 75.4744 85.5405 75.5679 85.8033 75.755C86.0661 75.9396 86.2412 76.1906 86.3288 76.5078H86.3857C86.4969 76.1953 86.6982 75.9455 86.9893 75.7585C87.2829 75.5691 87.6297 75.4744 88.0298 75.4744C88.5388 75.4744 88.9519 75.6366 89.2692 75.9609C89.5888 76.2829 89.7486 76.7398 89.7486 77.3317V81H88.2393V77.63C88.2393 77.3269 88.1589 77.0997 87.9979 76.9482C87.8369 76.7966 87.6357 76.7209 87.3942 76.7209C87.1196 76.7209 86.9053 76.8085 86.7514 76.9837C86.5975 77.1565 86.5206 77.3849 86.5206 77.669V81H85.054V77.598C85.054 77.3305 84.977 77.1174 84.8232 76.9588C84.6716 76.8002 84.4716 76.7209 84.223 76.7209C84.0549 76.7209 83.9034 76.7635 83.7685 76.8487C83.6359 76.9316 83.5305 77.0488 83.4524 77.2003C83.3743 77.3494 83.3352 77.5246 83.3352 77.7259V81H81.8224Z" fill="white"/>
<path d="M14.66 27V24.14H19.44C19.7733 24.14 20.0733 24.06 20.34 23.9C20.62 23.74 20.8333 23.5267 20.98 23.26C21.14 22.9933 21.22 22.7 21.22 22.38C21.22 22.06 21.14 21.7733 20.98 21.52C20.8333 21.2533 20.62 21.04 20.34 20.88C20.0733 20.72 19.7733 20.64 19.44 20.64H15.12V13H23.58V15.86H18.26V17.9H19.82C20.7 17.9 21.4867 18.1 22.18 18.5C22.8867 18.9 23.44 19.4467 23.84 20.14C24.2533 20.82 24.46 21.58 24.46 22.42C24.46 23.2467 24.2533 24.0133 23.84 24.72C23.44 25.4133 22.8867 25.9667 22.18 26.38C21.4867 26.7933 20.7 27 19.82 27H14.66ZM28.3909 27L31.5509 22.22C31.3776 22.2467 31.2109 22.2667 31.0509 22.28C30.8909 22.28 30.7243 22.2733 30.5509 22.26C29.6443 22.2067 28.8509 21.9733 28.1709 21.56C27.4909 21.1333 26.9643 20.58 26.5909 19.9C26.2176 19.2067 26.0309 18.4333 26.0309 17.58C26.0309 16.6867 26.2443 15.88 26.6709 15.16C27.1109 14.4267 27.7376 13.8467 28.5509 13.42C29.3776 12.98 30.3576 12.76 31.4909 12.76C32.6376 12.76 33.6176 12.9733 34.4309 13.4C35.2443 13.8267 35.8709 14.4067 36.3109 15.14C36.7509 15.8733 36.9709 16.6867 36.9709 17.58C36.9709 18.1667 36.8909 18.74 36.7309 19.3C36.5843 19.86 36.3709 20.4133 36.0909 20.96C35.8243 21.4933 35.5109 22.0333 35.1509 22.58L32.1909 27H28.3909ZM31.4909 19.6C31.9843 19.6 32.3976 19.5133 32.7309 19.34C33.0643 19.1533 33.3109 18.9067 33.4709 18.6C33.6443 18.2933 33.7309 17.9667 33.7309 17.62C33.7309 17.2467 33.6443 16.9133 33.4709 16.62C33.3109 16.3133 33.0643 16.0733 32.7309 15.9C32.3976 15.7133 31.9843 15.62 31.4909 15.62C31.0109 15.62 30.6043 15.7133 30.2709 15.9C29.9376 16.0733 29.6843 16.3133 29.5109 16.62C29.3509 16.9133 29.2709 17.2467 29.2709 17.62C29.2709 17.9667 29.3509 18.2933 29.5109 18.6C29.6843 18.9067 29.9376 19.1533 30.2709 19.34C30.6043 19.5133 31.0109 19.6 31.4909 19.6Z" fill="white"/>
<path d="M458.161 68V31.6364H465.849V46.6399H481.456V31.6364H489.126V68H481.456V52.9787H465.849V68H458.161Z" fill="#C91574"/>
<path d="M450.632 81V73.7273H452.17V76.728H455.291V73.7273H456.825V81H455.291V77.9957H452.17V81H450.632ZM458.999 83.0455C458.807 83.0455 458.627 83.0301 458.459 82.9993C458.293 82.9709 458.156 82.9342 458.047 82.8892L458.388 81.7599C458.565 81.8144 458.725 81.844 458.867 81.8487C459.012 81.8535 459.136 81.8203 459.24 81.7493C459.347 81.6783 459.433 81.5575 459.499 81.3871L459.588 81.1562L457.631 75.5455H459.222L460.352 79.5511H460.408L461.548 75.5455H463.15L461.03 81.5895C460.928 81.883 460.79 82.1387 460.614 82.3565C460.442 82.5767 460.223 82.746 459.957 82.8643C459.692 82.9851 459.373 83.0455 458.999 83.0455ZM465.758 81.0888C465.344 81.0888 464.969 80.9822 464.632 80.7692C464.299 80.5537 464.033 80.2377 463.837 79.821C463.643 79.402 463.546 78.8883 463.546 78.2798C463.546 77.6548 463.646 77.1352 463.848 76.7209C464.049 76.3042 464.316 75.9929 464.65 75.7869C464.986 75.5786 465.355 75.4744 465.755 75.4744C466.06 75.4744 466.315 75.5265 466.518 75.6307C466.724 75.7325 466.89 75.8603 467.015 76.0142C467.143 76.1657 467.24 76.3149 467.306 76.4616H467.353V73.7273H468.862V81H467.37V80.1264H467.306C467.235 80.2779 467.135 80.4283 467.005 80.5774C466.877 80.7242 466.71 80.8461 466.504 80.9432C466.3 81.0402 466.052 81.0888 465.758 81.0888ZM466.238 79.8849C466.481 79.8849 466.687 79.8187 466.855 79.6861C467.026 79.5511 467.156 79.3629 467.246 79.1214C467.338 78.88 467.385 78.5971 467.385 78.2727C467.385 77.9484 467.34 77.6667 467.25 77.4276C467.16 77.1884 467.029 77.0038 466.859 76.8736C466.689 76.7434 466.481 76.6783 466.238 76.6783C465.989 76.6783 465.779 76.7457 465.609 76.8807C465.439 77.0156 465.31 77.2027 465.222 77.4418C465.134 77.6809 465.091 77.9579 465.091 78.2727C465.091 78.59 465.134 78.8705 465.222 79.1143C465.312 79.3558 465.441 79.5452 465.609 79.6825C465.779 79.8175 465.989 79.8849 466.238 79.8849ZM470.106 81V75.5455H471.572V76.4972H471.629C471.729 76.1586 471.895 75.9029 472.13 75.7301C472.364 75.5549 472.634 75.4673 472.939 75.4673C473.015 75.4673 473.097 75.4721 473.184 75.4815C473.272 75.491 473.349 75.504 473.415 75.5206V76.8629C473.344 76.8416 473.246 76.8227 473.121 76.8061C472.995 76.7895 472.88 76.7812 472.776 76.7812C472.554 76.7812 472.355 76.8298 472.18 76.9268C472.007 77.0215 471.869 77.1541 471.768 77.3246C471.668 77.495 471.618 77.6915 471.618 77.9141V81H470.106ZM476.408 81.1065C475.856 81.1065 475.379 80.9893 474.977 80.755C474.577 80.5182 474.268 80.1892 474.05 79.7678C473.832 79.344 473.723 78.8527 473.723 78.294C473.723 77.7306 473.832 77.2382 474.05 76.8168C474.268 76.393 474.577 76.0639 474.977 75.8295C475.379 75.5928 475.856 75.4744 476.408 75.4744C476.96 75.4744 477.435 75.5928 477.836 75.8295C478.238 76.0639 478.548 76.393 478.766 76.8168C478.984 77.2382 479.093 77.7306 479.093 78.294C479.093 78.8527 478.984 79.344 478.766 79.7678C478.548 80.1892 478.238 80.5182 477.836 80.755C477.435 80.9893 476.96 81.1065 476.408 81.1065ZM476.415 79.9347C476.666 79.9347 476.876 79.8636 477.044 79.7216C477.212 79.5772 477.338 79.3807 477.424 79.1321C477.511 78.8835 477.555 78.6006 477.555 78.2834C477.555 77.9661 477.511 77.6832 477.424 77.4347C477.338 77.1861 477.212 76.9896 477.044 76.8452C476.876 76.7008 476.666 76.6286 476.415 76.6286C476.162 76.6286 475.949 76.7008 475.776 76.8452C475.605 76.9896 475.476 77.1861 475.389 77.4347C475.304 77.6832 475.261 77.9661 475.261 78.2834C475.261 78.6006 475.304 78.8835 475.389 79.1321C475.476 79.3807 475.605 79.5772 475.776 79.7216C475.949 79.8636 476.162 79.9347 476.415 79.9347ZM482.534 83.1591C482.044 83.1591 481.623 83.0916 481.273 82.9567C480.925 82.8241 480.648 82.643 480.442 82.4134C480.236 82.1837 480.102 81.9257 480.041 81.6392L481.44 81.451C481.483 81.5599 481.55 81.6617 481.642 81.7564C481.735 81.8511 481.857 81.9268 482.008 81.9837C482.162 82.0429 482.349 82.0724 482.569 82.0724C482.898 82.0724 483.169 81.992 483.382 81.831C483.598 81.6723 483.706 81.406 483.706 81.032V80.0341H483.642C483.575 80.1856 483.476 80.3288 483.343 80.4638C483.211 80.5987 483.04 80.7088 482.832 80.794C482.624 80.8793 482.375 80.9219 482.086 80.9219C481.677 80.9219 481.304 80.8272 480.968 80.6378C480.634 80.446 480.368 80.1536 480.169 79.7607C479.972 79.3653 479.874 78.8658 479.874 78.2621C479.874 77.6442 479.975 77.1281 480.176 76.7138C480.377 76.2995 480.645 75.9893 480.978 75.7834C481.315 75.5774 481.683 75.4744 482.083 75.4744C482.388 75.4744 482.644 75.5265 482.85 75.6307C483.056 75.7325 483.221 75.8603 483.347 76.0142C483.475 76.1657 483.573 76.3149 483.642 76.4616H483.699V75.5455H485.201V81.0533C485.201 81.5173 485.087 81.9055 484.86 82.218C484.632 82.5305 484.318 82.7649 483.915 82.9212C483.515 83.0798 483.055 83.1591 482.534 83.1591ZM482.566 79.7855C482.81 79.7855 483.016 79.7251 483.184 79.6044C483.354 79.4813 483.484 79.3061 483.574 79.0788C483.667 78.8492 483.713 78.5746 483.713 78.255C483.713 77.9354 483.668 77.6584 483.578 77.424C483.488 77.1873 483.358 77.0038 483.187 76.8736C483.017 76.7434 482.81 76.6783 482.566 76.6783C482.317 76.6783 482.108 76.7457 481.937 76.8807C481.767 77.0133 481.638 77.1979 481.55 77.4347C481.462 77.6714 481.419 77.9448 481.419 78.255C481.419 78.5698 481.462 78.8421 481.55 79.0717C481.64 79.299 481.769 79.4754 481.937 79.6009C482.108 79.724 482.317 79.7855 482.566 79.7855ZM488.89 81.1065C488.329 81.1065 487.846 80.9929 487.441 80.7656C487.039 80.536 486.729 80.2116 486.511 79.7926C486.293 79.3712 486.184 78.8729 486.184 78.2976C486.184 77.7365 486.293 77.2441 486.511 76.8203C486.729 76.3965 487.035 76.0663 487.431 75.8295C487.828 75.5928 488.295 75.4744 488.83 75.4744C489.19 75.4744 489.525 75.5324 489.835 75.6484C490.147 75.7621 490.42 75.9337 490.652 76.1634C490.886 76.393 491.068 76.6818 491.199 77.0298C491.329 77.3755 491.394 77.7803 491.394 78.2443V78.6598H486.788V77.7223H489.97C489.97 77.5045 489.922 77.3116 489.828 77.1435C489.733 76.9754 489.602 76.844 489.434 76.7493C489.268 76.6522 489.075 76.6037 488.855 76.6037C488.625 76.6037 488.422 76.657 488.244 76.7635C488.069 76.8677 487.931 77.0085 487.832 77.1861C487.733 77.3613 487.682 77.5566 487.679 77.772V78.6634C487.679 78.9332 487.729 79.1664 487.828 79.3629C487.93 79.5594 488.074 79.7109 488.258 79.8175C488.443 79.924 488.662 79.9773 488.915 79.9773C489.083 79.9773 489.237 79.9536 489.377 79.9062C489.516 79.8589 489.636 79.7879 489.735 79.6932C489.835 79.5985 489.911 79.4825 489.963 79.3452L491.362 79.4375C491.291 79.7737 491.145 80.0672 490.925 80.3182C490.707 80.5668 490.426 80.7609 490.08 80.9006C489.737 81.0379 489.34 81.1065 488.89 81.1065ZM493.894 77.8466V81H492.381V75.5455H493.823V76.5078H493.887C494.007 76.1906 494.21 75.9396 494.494 75.755C494.778 75.5679 495.123 75.4744 495.527 75.4744C495.906 75.4744 496.236 75.5573 496.518 75.723C496.8 75.8887 497.019 76.1255 497.175 76.4332C497.331 76.7386 497.409 77.1032 497.409 77.527V81H495.897V77.7969C495.899 77.4631 495.814 77.2027 495.641 77.0156C495.468 76.8262 495.23 76.7315 494.927 76.7315C494.724 76.7315 494.544 76.7753 494.387 76.8629C494.234 76.9505 494.113 77.0784 494.025 77.2464C493.94 77.4122 493.896 77.6122 493.894 77.8466Z" fill="white"/>
<path d="M440.153 27V24.14H442.753V15.86H440.353V13H446.033V24.14H448.373V27H440.153Z" fill="white"/>
<path d="M375.887 42.0945C375.745 40.6622 375.135 39.5495 374.058 38.7564C372.981 37.9633 371.519 37.5668 369.673 37.5668C368.418 37.5668 367.358 37.7443 366.494 38.0994C365.63 38.4427 364.967 38.9221 364.506 39.5376C364.056 40.1532 363.831 40.8516 363.831 41.6328C363.807 42.2839 363.943 42.852 364.239 43.3374C364.547 43.8227 364.967 44.2429 365.5 44.598C366.033 44.9413 366.648 45.2431 367.347 45.5036C368.045 45.7521 368.791 45.9652 369.584 46.1428L372.851 46.924C374.437 47.2791 375.893 47.7526 377.219 48.3445C378.545 48.9363 379.693 49.6643 380.663 50.5284C381.634 51.3925 382.386 52.4105 382.918 53.5824C383.463 54.7543 383.741 56.0978 383.753 57.6129C383.741 59.8383 383.173 61.7678 382.048 63.4013C380.936 65.023 379.326 66.2836 377.219 67.1832C375.124 68.071 372.596 68.5149 369.637 68.5149C366.701 68.5149 364.145 68.0651 361.967 67.1655C359.8 66.2659 358.108 64.9342 356.888 63.1705C355.681 61.3949 355.048 59.1991 354.989 56.5831H362.428C362.511 57.8023 362.86 58.8203 363.476 59.6371C364.103 60.442 364.938 61.0516 365.979 61.4659C367.033 61.8684 368.223 62.0696 369.548 62.0696C370.85 62.0696 371.981 61.8802 372.94 61.5014C373.91 61.1226 374.662 60.5959 375.195 59.9212C375.727 59.2464 375.994 58.4711 375.994 57.5952C375.994 56.7784 375.751 56.0919 375.266 55.5355C374.792 54.9792 374.094 54.5057 373.17 54.1151C372.259 53.7244 371.14 53.3693 369.815 53.0497L365.855 52.0554C362.789 51.3097 360.369 50.1437 358.593 48.5575C356.817 46.9714 355.936 44.8348 355.947 42.1477C355.936 39.946 356.522 38.0225 357.705 36.3771C358.901 34.7318 360.54 33.4474 362.624 32.5241C364.707 31.6009 367.074 31.1392 369.726 31.1392C372.425 31.1392 374.78 31.6009 376.793 32.5241C378.817 33.4474 380.391 34.7318 381.516 36.3771C382.64 38.0225 383.22 39.9283 383.256 42.0945H375.887Z" fill="#C91574"/>
<path d="M354.577 75.8189C354.549 75.5324 354.427 75.3099 354.212 75.1513C353.996 74.9927 353.704 74.9134 353.335 74.9134C353.084 74.9134 352.872 74.9489 352.699 75.0199C352.526 75.0885 352.393 75.1844 352.301 75.3075C352.211 75.4306 352.166 75.5703 352.166 75.7266C352.161 75.8568 352.189 75.9704 352.248 76.0675C352.309 76.1645 352.393 76.2486 352.5 76.3196C352.607 76.3883 352.73 76.4486 352.869 76.5007C353.009 76.5504 353.158 76.593 353.317 76.6286L353.97 76.7848C354.287 76.8558 354.579 76.9505 354.844 77.0689C355.109 77.1873 355.339 77.3329 355.533 77.5057C355.727 77.6785 355.877 77.8821 355.984 78.1165C356.093 78.3509 356.148 78.6196 356.151 78.9226C356.148 79.3677 356.035 79.7536 355.81 80.0803C355.587 80.4046 355.265 80.6567 354.844 80.8366C354.425 81.0142 353.919 81.103 353.327 81.103C352.74 81.103 352.229 81.013 351.793 80.8331C351.36 80.6532 351.022 80.3868 350.778 80.0341C350.536 79.679 350.41 79.2398 350.398 78.7166H351.886C351.902 78.9605 351.972 79.1641 352.095 79.3274C352.221 79.4884 352.388 79.6103 352.596 79.6932C352.807 79.7737 353.045 79.8139 353.31 79.8139C353.57 79.8139 353.796 79.776 353.988 79.7003C354.182 79.6245 354.332 79.5192 354.439 79.3842C354.545 79.2493 354.599 79.0942 354.599 78.919C354.599 78.7557 354.55 78.6184 354.453 78.5071C354.358 78.3958 354.219 78.3011 354.034 78.223C353.852 78.1449 353.628 78.0739 353.363 78.0099L352.571 77.8111C351.958 77.6619 351.474 77.4287 351.119 77.1115C350.763 76.7943 350.587 76.367 350.589 75.8295C350.587 75.3892 350.704 75.0045 350.941 74.6754C351.18 74.3464 351.508 74.0895 351.925 73.9048C352.341 73.7202 352.815 73.6278 353.345 73.6278C353.885 73.6278 354.356 73.7202 354.759 73.9048C355.163 74.0895 355.478 74.3464 355.703 74.6754C355.928 75.0045 356.044 75.3857 356.051 75.8189H354.577ZM360.654 78.6776V75.5455H362.167V81H360.715V80.0092H360.658C360.535 80.3288 360.33 80.5857 360.044 80.7798C359.759 80.974 359.413 81.071 359.003 81.071C358.638 81.071 358.318 80.9882 358.041 80.8224C357.764 80.6567 357.547 80.4212 357.391 80.1158C357.237 79.8104 357.159 79.4446 357.156 79.0185V75.5455H358.669V78.7486C358.672 79.0705 358.758 79.325 358.928 79.5121C359.099 79.6991 359.327 79.7926 359.614 79.7926C359.796 79.7926 359.967 79.7512 360.125 79.6683C360.284 79.5831 360.412 79.4576 360.509 79.2919C360.608 79.1262 360.657 78.9214 360.654 78.6776ZM364.89 73.7273V81H363.377V73.7273H364.89ZM366.102 83.0455V75.5455H367.593V76.4616H367.661C367.727 76.3149 367.823 76.1657 367.948 76.0142C368.076 75.8603 368.242 75.7325 368.445 75.6307C368.651 75.5265 368.907 75.4744 369.213 75.4744C369.61 75.4744 369.977 75.5786 370.313 75.7869C370.65 75.9929 370.918 76.3042 371.119 76.7209C371.321 77.1352 371.421 77.6548 371.421 78.2798C371.421 78.8883 371.323 79.402 371.127 79.821C370.932 80.2377 370.667 80.5537 370.331 80.7692C369.997 80.9822 369.623 81.0888 369.209 81.0888C368.915 81.0888 368.666 81.0402 368.46 80.9432C368.256 80.8461 368.089 80.7242 367.959 80.5774C367.829 80.4283 367.729 80.2779 367.661 80.1264H367.615V83.0455H366.102ZM367.583 78.2727C367.583 78.5971 367.628 78.88 367.718 79.1214C367.807 79.3629 367.938 79.5511 368.108 79.6861C368.279 79.8187 368.486 79.8849 368.73 79.8849C368.976 79.8849 369.184 79.8175 369.355 79.6825C369.525 79.5452 369.654 79.3558 369.742 79.1143C369.832 78.8705 369.877 78.59 369.877 78.2727C369.877 77.9579 369.833 77.6809 369.745 77.4418C369.658 77.2027 369.529 77.0156 369.358 76.8807C369.188 76.7457 368.978 76.6783 368.73 76.6783C368.483 76.6783 368.275 76.7434 368.105 76.8736C367.936 77.0038 367.807 77.1884 367.718 77.4276C367.628 77.6667 367.583 77.9484 367.583 78.2727ZM373.943 77.8466V81H372.43V73.7273H373.9V76.5078H373.964C374.087 76.1858 374.286 75.9337 374.561 75.7514C374.835 75.5668 375.18 75.4744 375.594 75.4744C375.973 75.4744 376.303 75.5573 376.585 75.723C376.869 75.8864 377.089 76.1219 377.245 76.4297C377.404 76.7351 377.482 77.1009 377.48 77.527V81H375.967V77.7969C375.969 77.4607 375.884 77.1991 375.711 77.0121C375.541 76.825 375.302 76.7315 374.994 76.7315C374.788 76.7315 374.606 76.7753 374.447 76.8629C374.291 76.9505 374.168 77.0784 374.078 77.2464C373.99 77.4122 373.945 77.6122 373.943 77.8466ZM382.168 78.6776V75.5455H383.681V81H382.228V80.0092H382.172C382.048 80.3288 381.844 80.5857 381.557 80.7798C381.273 80.974 380.926 81.071 380.517 81.071C380.152 81.071 379.831 80.9882 379.554 80.8224C379.277 80.6567 379.061 80.4212 378.904 80.1158C378.751 79.8104 378.672 79.4446 378.67 79.0185V75.5455H380.183V78.7486C380.185 79.0705 380.272 79.325 380.442 79.5121C380.613 79.6991 380.841 79.7926 381.127 79.7926C381.31 79.7926 381.48 79.7512 381.639 79.6683C381.797 79.5831 381.925 79.4576 382.022 79.2919C382.122 79.1262 382.17 78.9214 382.168 78.6776ZM384.891 81V75.5455H386.357V76.4972H386.414C386.514 76.1586 386.681 75.9029 386.915 75.7301C387.149 75.5549 387.419 75.4673 387.725 75.4673C387.8 75.4673 387.882 75.4721 387.97 75.4815C388.057 75.491 388.134 75.504 388.2 75.5206V76.8629C388.129 76.8416 388.031 76.8227 387.906 76.8061C387.78 76.7895 387.665 76.7812 387.561 76.7812C387.339 76.7812 387.14 76.8298 386.965 76.9268C386.792 77.0215 386.655 77.1541 386.553 77.3246C386.453 77.495 386.404 77.6915 386.404 77.9141V81H384.891Z" fill="white"/>
<path d="M329.86 27V24.14H332.46V15.86H330.06V13H335.74V24.14H338.08V27H329.86ZM344.596 27.24C343.463 27.24 342.483 27.0267 341.656 26.6C340.843 26.16 340.216 25.58 339.776 24.86C339.35 24.1267 339.136 23.3133 339.136 22.42C339.136 21.5267 339.303 20.6733 339.636 19.86C339.97 19.0467 340.41 18.2333 340.956 17.42L343.916 13H347.716L344.556 17.78C344.716 17.7533 344.876 17.74 345.036 17.74C345.21 17.7267 345.383 17.7267 345.556 17.74C346.45 17.7933 347.236 18.0333 347.916 18.46C348.596 18.8733 349.123 19.4267 349.496 20.12C349.883 20.8 350.076 21.5667 350.076 22.42C350.076 23.3 349.856 24.1067 349.416 24.84C348.976 25.5733 348.35 26.16 347.536 26.6C346.723 27.0267 345.743 27.24 344.596 27.24ZM344.596 24.38C345.09 24.38 345.503 24.2933 345.836 24.12C346.17 23.9333 346.416 23.6867 346.576 23.38C346.75 23.0733 346.836 22.74 346.836 22.38C346.836 22.02 346.75 21.6933 346.576 21.4C346.416 21.0933 346.17 20.8467 345.836 20.66C345.503 20.4733 345.09 20.38 344.596 20.38C344.116 20.38 343.71 20.4733 343.376 20.66C343.043 20.8467 342.79 21.0933 342.616 21.4C342.456 21.6933 342.376 22.02 342.376 22.38C342.376 22.74 342.456 23.0733 342.616 23.38C342.79 23.6867 343.043 23.9333 343.376 24.12C343.71 24.2933 344.116 24.38 344.596 24.38Z" fill="white"/>
<path d="M241.776 37.9751V31.6364H271.641V37.9751H260.508V68H252.908V37.9751H241.776ZM276.417 68V40.7273H283.981V68H276.417ZM280.217 37.2116C279.092 37.2116 278.127 36.8388 277.322 36.093C276.529 35.3355 276.133 34.4299 276.133 33.3764C276.133 32.3348 276.529 31.4411 277.322 30.6953C278.127 29.9377 279.092 29.5589 280.217 29.5589C281.341 29.5589 282.3 29.9377 283.093 30.6953C283.898 31.4411 284.3 32.3348 284.3 33.3764C284.3 34.4299 283.898 35.3355 283.093 36.093C282.3 36.8388 281.341 37.2116 280.217 37.2116Z" fill="#C91574"/>
<path d="M242.355 74.995V73.7273H248.328V74.995H246.102V81H244.582V74.995H242.355ZM249.283 81V75.5455H250.796V81H249.283ZM250.043 74.8423C249.818 74.8423 249.625 74.7678 249.464 74.6186C249.306 74.4671 249.227 74.286 249.227 74.0753C249.227 73.867 249.306 73.6882 249.464 73.5391C249.625 73.3875 249.818 73.3118 250.043 73.3118C250.268 73.3118 250.46 73.3875 250.619 73.5391C250.78 73.6882 250.86 73.867 250.86 74.0753C250.86 74.286 250.78 74.4671 250.619 74.6186C250.46 74.7678 250.268 74.8423 250.043 74.8423ZM254.909 75.5455V76.6818H251.624V75.5455H254.909ZM252.37 74.2386H253.883V79.3239C253.883 79.4635 253.904 79.5724 253.947 79.6506C253.99 79.7263 254.049 79.7796 254.124 79.8104C254.203 79.8411 254.293 79.8565 254.394 79.8565C254.465 79.8565 254.536 79.8506 254.607 79.8388C254.678 79.8246 254.733 79.8139 254.771 79.8068L255.009 80.9325C254.933 80.9562 254.826 80.9834 254.689 81.0142C254.552 81.0473 254.385 81.0675 254.188 81.0746C253.824 81.0888 253.504 81.0402 253.23 80.929C252.957 80.8177 252.745 80.6449 252.594 80.4105C252.442 80.1761 252.368 79.8802 252.37 79.5227V74.2386ZM257.45 81.103C257.102 81.103 256.792 81.0426 256.52 80.9219C256.247 80.7988 256.032 80.6177 255.873 80.3786C255.717 80.1371 255.639 79.8364 255.639 79.4766C255.639 79.1735 255.695 78.919 255.806 78.7131C255.917 78.5071 256.069 78.3414 256.26 78.2159C256.452 78.0904 256.67 77.9957 256.914 77.9318C257.16 77.8679 257.418 77.8229 257.688 77.7969C258.005 77.7637 258.261 77.733 258.455 77.7045C258.649 77.6738 258.79 77.6288 258.878 77.5696C258.965 77.5104 259.009 77.4228 259.009 77.3068V77.2855C259.009 77.0606 258.938 76.8866 258.796 76.7635C258.656 76.6404 258.457 76.5788 258.199 76.5788C257.927 76.5788 257.711 76.6392 257.55 76.7599C257.389 76.8783 257.282 77.0275 257.23 77.2074L255.831 77.0938C255.902 76.7623 256.041 76.4759 256.25 76.2344C256.458 75.9905 256.727 75.8035 257.056 75.6733C257.387 75.5407 257.771 75.4744 258.206 75.4744C258.51 75.4744 258.8 75.5099 259.077 75.581C259.356 75.652 259.603 75.7621 259.819 75.9112C260.037 76.0604 260.208 76.2521 260.334 76.4865C260.459 76.7185 260.522 76.9967 260.522 77.321V81H259.087V80.2436H259.045C258.957 80.4141 258.84 80.5644 258.693 80.6946C258.546 80.8224 258.37 80.9231 258.164 80.9964C257.958 81.0675 257.72 81.103 257.45 81.103ZM257.883 80.0589C258.106 80.0589 258.302 80.0152 258.473 79.9276C258.643 79.8376 258.777 79.7169 258.874 79.5653C258.971 79.4138 259.02 79.2422 259.02 79.0504V78.4716C258.972 78.5024 258.907 78.5308 258.824 78.5568C258.744 78.5805 258.653 78.603 258.551 78.6243C258.449 78.6432 258.347 78.661 258.246 78.6776C258.144 78.6918 258.051 78.7048 257.969 78.7166C257.791 78.7427 257.636 78.7841 257.503 78.8409C257.371 78.8977 257.268 78.9747 257.194 79.0717C257.121 79.1664 257.084 79.2848 257.084 79.4268C257.084 79.6328 257.159 79.7902 257.308 79.8991C257.46 80.0057 257.651 80.0589 257.883 80.0589ZM263.208 77.8466V81H261.695V75.5455H263.137V76.5078H263.201C263.322 76.1906 263.524 75.9396 263.808 75.755C264.093 75.5679 264.437 75.4744 264.842 75.4744C265.221 75.4744 265.551 75.5573 265.833 75.723C266.114 75.8887 266.333 76.1255 266.49 76.4332C266.646 76.7386 266.724 77.1032 266.724 77.527V81H265.211V77.7969C265.213 77.4631 265.128 77.2027 264.955 77.0156C264.783 76.8262 264.545 76.7315 264.242 76.7315C264.038 76.7315 263.858 76.7753 263.702 76.8629C263.548 76.9505 263.427 77.0784 263.34 77.2464C263.254 77.4122 263.211 77.6122 263.208 77.8466ZM267.916 81V75.5455H269.429V81H267.916ZM268.676 74.8423C268.451 74.8423 268.258 74.7678 268.097 74.6186C267.939 74.4671 267.859 74.286 267.859 74.0753C267.859 73.867 267.939 73.6882 268.097 73.5391C268.258 73.3875 268.451 73.3118 268.676 73.3118C268.901 73.3118 269.093 73.3875 269.251 73.5391C269.412 73.6882 269.493 73.867 269.493 74.0753C269.493 74.286 269.412 74.4671 269.251 74.6186C269.093 74.7678 268.901 74.8423 268.676 74.8423ZM274.139 78.6776V75.5455H275.651V81H274.199V80.0092H274.142C274.019 80.3288 273.814 80.5857 273.528 80.7798C273.244 80.974 272.897 81.071 272.487 81.071C272.123 81.071 271.802 80.9882 271.525 80.8224C271.248 80.6567 271.031 80.4212 270.875 80.1158C270.721 79.8104 270.643 79.4446 270.641 79.0185V75.5455H272.154V78.7486C272.156 79.0705 272.242 79.325 272.413 79.5121C272.583 79.6991 272.812 79.7926 273.098 79.7926C273.28 79.7926 273.451 79.7512 273.61 79.6683C273.768 79.5831 273.896 79.4576 273.993 79.2919C274.093 79.1262 274.141 78.9214 274.139 78.6776ZM276.862 81V75.5455H278.303V76.5078H278.367C278.481 76.1882 278.67 75.9361 278.935 75.7514C279.201 75.5668 279.518 75.4744 279.887 75.4744C280.261 75.4744 280.58 75.5679 280.842 75.755C281.105 75.9396 281.28 76.1906 281.368 76.5078H281.425C281.536 76.1953 281.737 75.9455 282.028 75.7585C282.322 75.5691 282.669 75.4744 283.069 75.4744C283.578 75.4744 283.991 75.6366 284.308 75.9609C284.628 76.2829 284.788 76.7398 284.788 77.3317V81H283.278V77.63C283.278 77.3269 283.198 77.0997 283.037 76.9482C282.876 76.7966 282.675 76.7209 282.433 76.7209C282.159 76.7209 281.944 76.8085 281.79 76.9837C281.637 77.1565 281.56 77.3849 281.56 77.669V81H280.093V77.598C280.093 77.3305 280.016 77.1174 279.862 76.9588C279.711 76.8002 279.511 76.7209 279.262 76.7209C279.094 76.7209 278.942 76.7635 278.808 76.8487C278.675 76.9316 278.57 77.0488 278.491 77.2003C278.413 77.3494 278.374 77.5246 278.374 77.7259V81H276.862Z" fill="white"/>
<path d="M227.64 27C227.067 27 226.56 26.88 226.12 26.64C225.68 26.3867 225.34 26.0533 225.1 25.64C224.86 25.2133 224.74 24.7467 224.74 24.24C224.74 23.7867 224.853 23.3467 225.08 22.92C225.32 22.4933 225.633 22.14 226.02 21.86L230.22 18.86C230.487 18.6733 230.687 18.4533 230.82 18.2C230.967 17.9333 231.04 17.66 231.04 17.38C231.04 17.06 230.967 16.7933 230.82 16.58C230.687 16.3533 230.493 16.18 230.24 16.06C230 15.9267 229.707 15.86 229.36 15.86H225.42V13H229.68C230.6 13 231.4 13.2 232.08 13.6C232.773 13.9867 233.307 14.5133 233.68 15.18C234.067 15.8333 234.26 16.5667 234.26 17.38C234.26 18.18 234.093 18.8933 233.76 19.52C233.44 20.1333 232.913 20.68 232.18 21.16L228.42 23.68C228.393 23.6933 228.36 23.7267 228.32 23.78C228.293 23.82 228.28 23.8667 228.28 23.92C228.28 24 228.3 24.06 228.34 24.1C228.393 24.1267 228.467 24.14 228.56 24.14H234.6V27H227.64ZM239.007 27C238.434 27 237.927 26.88 237.487 26.64C237.047 26.3867 236.707 26.0533 236.467 25.64C236.227 25.2133 236.107 24.7467 236.107 24.24C236.107 23.7867 236.221 23.3467 236.447 22.92C236.687 22.4933 237.001 22.14 237.387 21.86L241.587 18.86C241.854 18.6733 242.054 18.4533 242.187 18.2C242.334 17.9333 242.407 17.66 242.407 17.38C242.407 17.06 242.334 16.7933 242.187 16.58C242.054 16.3533 241.861 16.18 241.607 16.06C241.367 15.9267 241.074 15.86 240.727 15.86H236.787V13H241.047C241.967 13 242.767 13.2 243.447 13.6C244.141 13.9867 244.674 14.5133 245.047 15.18C245.434 15.8333 245.627 16.5667 245.627 17.38C245.627 18.18 245.461 18.8933 245.127 19.52C244.807 20.1333 244.281 20.68 243.547 21.16L239.787 23.68C239.761 23.6933 239.727 23.7267 239.687 23.78C239.661 23.82 239.647 23.8667 239.647 23.92C239.647 24 239.667 24.06 239.707 24.1C239.761 24.1267 239.834 24.14 239.927 24.14H245.967V27H239.007Z" fill="white"/>
<path d="M162.849 31.6364V68H155.161V31.6364H162.849Z" fill="#C91574"/>
<path d="M146.17 73.7273V81H144.632V73.7273H146.17ZM149.871 81.1065C149.319 81.1065 148.842 80.9893 148.44 80.755C148.04 80.5182 147.731 80.1892 147.513 79.7678C147.295 79.344 147.186 78.8527 147.186 78.294C147.186 77.7306 147.295 77.2382 147.513 76.8168C147.731 76.393 148.04 76.0639 148.44 75.8295C148.842 75.5928 149.319 75.4744 149.871 75.4744C150.423 75.4744 150.898 75.5928 151.298 75.8295C151.701 76.0639 152.011 76.393 152.229 76.8168C152.447 77.2382 152.556 77.7306 152.556 78.294C152.556 78.8527 152.447 79.344 152.229 79.7678C152.011 80.1892 151.701 80.5182 151.298 80.755C150.898 80.9893 150.423 81.1065 149.871 81.1065ZM149.878 79.9347C150.129 79.9347 150.338 79.8636 150.507 79.7216C150.675 79.5772 150.801 79.3807 150.887 79.1321C150.974 78.8835 151.018 78.6006 151.018 78.2834C151.018 77.9661 150.974 77.6832 150.887 77.4347C150.801 77.1861 150.675 76.9896 150.507 76.8452C150.338 76.7008 150.129 76.6286 149.878 76.6286C149.625 76.6286 149.412 76.7008 149.239 76.8452C149.068 76.9896 148.939 77.1861 148.852 77.4347C148.767 77.6832 148.724 77.9661 148.724 78.2834C148.724 78.6006 148.767 78.8835 148.852 79.1321C148.939 79.3807 149.068 79.5772 149.239 79.7216C149.412 79.8636 149.625 79.9347 149.878 79.9347ZM155.549 81.0888C155.135 81.0888 154.76 80.9822 154.423 80.7692C154.09 80.5537 153.825 80.2377 153.628 79.821C153.434 79.402 153.337 78.8883 153.337 78.2798C153.337 77.6548 153.437 77.1352 153.639 76.7209C153.84 76.3042 154.107 75.9929 154.441 75.7869C154.777 75.5786 155.146 75.4744 155.546 75.4744C155.851 75.4744 156.106 75.5265 156.309 75.6307C156.515 75.7325 156.681 75.8603 156.806 76.0142C156.934 76.1657 157.031 76.3149 157.097 76.4616H157.144V73.7273H158.653V81H157.161V80.1264H157.097C157.026 80.2779 156.926 80.4283 156.796 80.5774C156.668 80.7242 156.501 80.8461 156.295 80.9432C156.091 81.0402 155.843 81.0888 155.549 81.0888ZM156.029 79.8849C156.272 79.8849 156.478 79.8187 156.646 79.6861C156.817 79.5511 156.947 79.3629 157.037 79.1214C157.129 78.88 157.176 78.5971 157.176 78.2727C157.176 77.9484 157.131 77.6667 157.041 77.4276C156.951 77.1884 156.82 77.0038 156.65 76.8736C156.48 76.7434 156.272 76.6783 156.029 76.6783C155.78 76.6783 155.57 76.7457 155.4 76.8807C155.23 77.0156 155.101 77.2027 155.013 77.4418C154.925 77.6809 154.882 77.9579 154.882 78.2727C154.882 78.59 154.925 78.8705 155.013 79.1143C155.103 79.3558 155.232 79.5452 155.4 79.6825C155.57 79.8175 155.78 79.8849 156.029 79.8849ZM159.897 81V75.5455H161.409V81H159.897ZM160.657 74.8423C160.432 74.8423 160.239 74.7678 160.078 74.6186C159.919 74.4671 159.84 74.286 159.84 74.0753C159.84 73.867 159.919 73.6882 160.078 73.5391C160.239 73.3875 160.432 73.3118 160.657 73.3118C160.882 73.3118 161.073 73.3875 161.232 73.5391C161.393 73.6882 161.473 73.867 161.473 74.0753C161.473 74.286 161.393 74.4671 161.232 74.6186C161.073 74.7678 160.882 74.8423 160.657 74.8423ZM164.134 77.8466V81H162.621V75.5455H164.063V76.5078H164.127C164.248 76.1906 164.45 75.9396 164.734 75.755C165.018 75.5679 165.363 75.4744 165.768 75.4744C166.146 75.4744 166.477 75.5573 166.758 75.723C167.04 75.8887 167.259 76.1255 167.415 76.4332C167.572 76.7386 167.65 77.1032 167.65 77.527V81H166.137V77.7969C166.139 77.4631 166.054 77.2027 165.881 77.0156C165.708 76.8262 165.47 76.7315 165.167 76.7315C164.964 76.7315 164.784 76.7753 164.628 76.8629C164.474 76.9505 164.353 77.0784 164.265 77.2464C164.18 77.4122 164.136 77.6122 164.134 77.8466ZM171.328 81.1065C170.767 81.1065 170.284 80.9929 169.879 80.7656C169.476 80.536 169.166 80.2116 168.949 79.7926C168.731 79.3712 168.622 78.8729 168.622 78.2976C168.622 77.7365 168.731 77.2441 168.949 76.8203C169.166 76.3965 169.473 76.0663 169.868 75.8295C170.266 75.5928 170.732 75.4744 171.267 75.4744C171.627 75.4744 171.962 75.5324 172.272 75.6484C172.585 75.7621 172.857 75.9337 173.089 76.1634C173.324 76.393 173.506 76.6818 173.636 77.0298C173.766 77.3755 173.831 77.7803 173.831 78.2443V78.6598H169.225V77.7223H172.407C172.407 77.5045 172.36 77.3116 172.265 77.1435C172.171 76.9754 172.039 76.844 171.871 76.7493C171.705 76.6522 171.512 76.6037 171.292 76.6037C171.063 76.6037 170.859 76.657 170.681 76.7635C170.506 76.8677 170.369 77.0085 170.27 77.1861C170.17 77.3613 170.119 77.5566 170.117 77.772V78.6634C170.117 78.9332 170.167 79.1664 170.266 79.3629C170.368 79.5594 170.511 79.7109 170.696 79.8175C170.88 79.924 171.099 79.9773 171.353 79.9773C171.521 79.9773 171.675 79.9536 171.814 79.9062C171.954 79.8589 172.074 79.7879 172.173 79.6932C172.272 79.5985 172.348 79.4825 172.4 79.3452L173.799 79.4375C173.728 79.7737 173.583 80.0672 173.363 80.3182C173.145 80.5668 172.863 80.7609 172.517 80.9006C172.174 81.0379 171.778 81.1065 171.328 81.1065Z" fill="white"/>
<path d="M119.66 27V24.14H124.44C124.773 24.14 125.073 24.06 125.34 23.9C125.62 23.74 125.833 23.5267 125.98 23.26C126.14 22.9933 126.22 22.7 126.22 22.38C126.22 22.06 126.14 21.7733 125.98 21.52C125.833 21.2533 125.62 21.04 125.34 20.88C125.073 20.72 124.773 20.64 124.44 20.64H120.12V13H128.58V15.86H123.26V17.9H124.82C125.7 17.9 126.487 18.1 127.18 18.5C127.887 18.9 128.44 19.4467 128.84 20.14C129.253 20.82 129.46 21.58 129.46 22.42C129.46 23.2467 129.253 24.0133 128.84 24.72C128.44 25.4133 127.887 25.9667 127.18 26.38C126.487 26.7933 125.7 27 124.82 27H119.66ZM131.111 27V24.14H135.911C136.191 24.14 136.444 24.08 136.671 23.96C136.898 23.84 137.071 23.6733 137.191 23.46C137.324 23.2467 137.391 23 137.391 22.72C137.391 22.4533 137.324 22.2133 137.191 22C137.071 21.7733 136.898 21.6 136.671 21.48C136.444 21.3467 136.191 21.28 135.911 21.28H131.791V18.54H136.011C136.278 18.54 136.511 18.48 136.711 18.36C136.911 18.24 137.071 18.08 137.191 17.88C137.324 17.68 137.391 17.4533 137.391 17.2C137.391 16.9467 137.324 16.72 137.191 16.52C137.071 16.32 136.911 16.16 136.711 16.04C136.511 15.92 136.278 15.86 136.011 15.86H131.111V13H136.531C137.318 13 138.018 13.18 138.631 13.54C139.258 13.9 139.751 14.38 140.111 14.98C140.484 15.58 140.671 16.2467 140.671 16.98C140.671 17.5267 140.544 18.0533 140.291 18.56C140.051 19.0667 139.711 19.5067 139.271 19.88C139.578 20.12 139.838 20.4 140.051 20.72C140.264 21.0267 140.424 21.36 140.531 21.72C140.651 22.0667 140.711 22.4333 140.711 22.82C140.711 23.6067 140.518 24.32 140.131 24.96C139.758 25.5867 139.251 26.0867 138.611 26.46C137.971 26.82 137.251 27 136.451 27H131.111Z" fill="white"/>
</svg>
